G04*
G04 #@! TF.GenerationSoftware,Altium Limited,Altium Designer,24.9.1 (31)*
G04*
G04 Layer_Physical_Order=2*
G04 Layer_Color=16711680*
%FSLAX25Y25*%
%MOIN*%
G70*
G04*
G04 #@! TF.SameCoordinates,8287A4C5-CB0D-4E90-9DB4-BFF006B876B5*
G04*
G04*
G04 #@! TF.FilePolarity,Positive*
G04*
G01*
G75*
%ADD100C,0.06102*%
%ADD101R,0.06102X0.06102*%
%ADD104C,0.03000*%
%ADD107C,0.02000*%
%ADD108C,0.02300*%
%ADD109C,0.01500*%
%ADD110C,0.02500*%
%ADD112C,0.01900*%
%ADD114C,0.06000*%
%ADD115R,0.06496X0.06496*%
%ADD116C,0.06496*%
%ADD117R,0.19685X0.11811*%
%ADD118R,0.11811X0.19685*%
%ADD119C,0.05000*%
%ADD120C,0.01500*%
D100*
X553000Y71500D02*
D03*
X563000D02*
D03*
D101*
X573000D02*
D03*
D104*
X143661Y311839D02*
X179500Y276000D01*
X192500D01*
D107*
X571000Y342500D02*
Y355500D01*
Y342500D02*
X572500Y341000D01*
X660325Y348175D02*
X660500Y348000D01*
X702500Y368500D02*
X703000Y368000D01*
X702191Y338809D02*
X703000Y338000D01*
D108*
X549500Y130500D02*
Y143220D01*
X549780Y143500D01*
X318500Y198000D02*
X319000Y197500D01*
Y170500D02*
Y197500D01*
X608000Y193500D02*
Y217500D01*
X584000Y169500D02*
X608000Y193500D01*
X580000Y155500D02*
X589000Y164500D01*
X580000Y148500D02*
Y155500D01*
X567000Y135500D02*
X580000Y148500D01*
X567000Y83500D02*
Y135500D01*
X584000Y148000D02*
Y155000D01*
X591000Y162000D01*
X574500Y138500D02*
X584000Y148000D01*
X574500Y82500D02*
Y138500D01*
X618500Y290000D02*
Y296500D01*
X619500Y297500D01*
X502500Y460500D02*
Y468000D01*
X509500Y475000D01*
X502500Y460500D02*
X523890Y439110D01*
Y366390D02*
Y439110D01*
X327500Y339617D02*
Y380500D01*
X318000Y390000D02*
X327500Y380500D01*
X274000Y306000D02*
Y332000D01*
X267000Y339000D02*
X274000Y332000D01*
D109*
X233000Y176500D02*
X243500D01*
X230000Y179500D02*
X233000Y176500D01*
X243500D02*
X248000Y181000D01*
Y184000D01*
X620500Y164500D02*
Y214500D01*
X568500Y266500D02*
X620500Y214500D01*
X681000Y542000D02*
X685500Y546500D01*
X681000Y455000D02*
Y542000D01*
X674000Y453500D02*
Y535500D01*
X674500Y536000D01*
X687000Y345803D02*
Y362500D01*
X685197Y344000D02*
X687000Y345803D01*
X683500Y344000D02*
X685197D01*
X680000Y363000D02*
X681000Y362000D01*
Y347000D02*
Y362000D01*
X686500Y363000D02*
X687000Y362500D01*
X622250Y153750D02*
X628500Y160000D01*
Y190500D01*
X625500Y166672D02*
Y190500D01*
X620553Y161724D02*
X625500Y166672D01*
X620553Y156053D02*
Y161724D01*
X632500Y149000D02*
Y209499D01*
X629500Y146000D02*
X632500Y149000D01*
X572841Y269158D02*
X632500Y209499D01*
X614500Y158500D02*
X620500Y164500D01*
X568500Y282000D02*
Y384172D01*
X631500Y337000D02*
Y344000D01*
X508000Y170500D02*
Y213500D01*
X631500Y337000D01*
X564500Y383000D02*
X576000Y394500D01*
X564500Y279000D02*
Y383000D01*
X568500Y384172D02*
X579000Y394672D01*
Y503000D01*
X577000Y505000D02*
X579000Y503000D01*
X576000Y394500D02*
Y500000D01*
X633500Y343000D02*
X635500Y345000D01*
X633500Y336000D02*
Y343000D01*
X510500Y213000D02*
X633500Y336000D01*
X510500Y162500D02*
Y213000D01*
X514000Y465000D02*
X537500D01*
X529500Y499000D02*
X533000Y495500D01*
X525500Y527500D02*
X529500Y523500D01*
Y499000D02*
Y523500D01*
X558500Y515000D02*
X562000D01*
X539000Y495500D02*
X558500Y515000D01*
X533000Y495500D02*
X539000D01*
X533000D02*
X539500Y502000D01*
Y504500D01*
X514500Y500000D02*
X521000D01*
X497500Y514500D02*
X502500Y519500D01*
X231000Y506000D02*
X239500Y497500D01*
X248000Y519000D02*
Y520500D01*
Y519000D02*
X252500Y514500D01*
X229000Y504000D02*
X231000Y506000D01*
X216000Y504000D02*
X229000D01*
D110*
X577500Y312000D02*
X599000Y333500D01*
X577500Y299000D02*
Y312000D01*
X658000Y154000D02*
X703000D01*
X656000Y164000D02*
X703000D01*
X581186Y139500D02*
X643500D01*
X590500Y143000D02*
X635000D01*
X656000Y164000D01*
X574000Y358536D02*
X575464Y360000D01*
X577911Y355823D02*
X665986D01*
X575464Y360000D02*
X657500D01*
X574000Y347013D02*
Y358536D01*
X578086Y348000D02*
X660500D01*
X577500Y351000D02*
X666500D01*
X643500Y139500D02*
X658000Y154000D01*
X665986Y355823D02*
X683000Y338809D01*
X657500Y360000D02*
X666000Y368500D01*
X702500D01*
X683000Y338809D02*
X702191D01*
X574000Y347013D02*
X578000Y343013D01*
D112*
X277500Y315500D02*
X281000Y319000D01*
X277500Y309000D02*
Y315500D01*
Y309000D02*
X280000Y306500D01*
X504500Y166500D02*
Y213111D01*
X627500Y336111D01*
Y343500D01*
X600500Y180500D02*
X607500D01*
X617500Y190500D01*
X576000Y156000D02*
X600500Y180500D01*
X576000Y151500D02*
Y156000D01*
X639500Y304000D02*
Y335500D01*
X563000Y138500D02*
X576000Y151500D01*
X563000Y130500D02*
Y138500D01*
X292000Y315000D02*
X293000Y316000D01*
Y365500D01*
X285500Y297000D02*
X297000Y308500D01*
Y312500D01*
D114*
X715000Y57500D02*
D03*
X94500D02*
D03*
X715000Y577500D02*
D03*
X94500D02*
D03*
D115*
X703000Y460500D02*
D03*
Y527000D02*
D03*
Y134000D02*
D03*
X703000Y338000D02*
D03*
D116*
X703000Y470500D02*
D03*
Y480500D02*
D03*
Y490500D02*
D03*
Y537000D02*
D03*
Y547000D02*
D03*
Y557000D02*
D03*
Y164000D02*
D03*
Y154000D02*
D03*
Y144000D02*
D03*
X703000Y348000D02*
D03*
Y358000D02*
D03*
Y368000D02*
D03*
D117*
X107000Y329500D02*
D03*
D118*
X106000Y305000D02*
D03*
D119*
X192500Y276000D02*
D03*
X143661Y311839D02*
D03*
D120*
X549780Y143500D02*
D03*
X549500Y130500D02*
D03*
X554583Y159327D02*
D03*
X565606D02*
D03*
X560094Y153815D02*
D03*
Y148303D02*
D03*
Y159327D02*
D03*
X554583Y148303D02*
D03*
X565500D02*
D03*
X554583Y153815D02*
D03*
X565606D02*
D03*
X318500Y198000D02*
D03*
X319000Y170500D02*
D03*
X230000Y179500D02*
D03*
X248000Y184000D02*
D03*
X577500Y299000D02*
D03*
X599000Y333500D02*
D03*
X572500Y341000D02*
D03*
X571000Y355500D02*
D03*
X281000Y319000D02*
D03*
X674500Y536000D02*
D03*
X685500Y546500D02*
D03*
X681000Y455000D02*
D03*
X674000Y453500D02*
D03*
X686500Y363000D02*
D03*
X680000D02*
D03*
X683500Y344000D02*
D03*
X681000Y347000D02*
D03*
X625500Y190500D02*
D03*
X628500D02*
D03*
X629500Y146000D02*
D03*
X620553Y156053D02*
D03*
X622250Y153750D02*
D03*
X608000Y217500D02*
D03*
X584000Y169500D02*
D03*
X581186Y139500D02*
D03*
X590500Y143000D02*
D03*
X504500Y166500D02*
D03*
X568500Y282000D02*
D03*
X627500Y343500D02*
D03*
X617500Y190500D02*
D03*
X589000Y164500D02*
D03*
X639500Y304000D02*
D03*
Y335500D02*
D03*
X563000Y130500D02*
D03*
X591000Y162000D02*
D03*
X572841Y269158D02*
D03*
X614500Y158500D02*
D03*
X568500Y266500D02*
D03*
X564500Y279000D02*
D03*
X577911Y355823D02*
D03*
X577500Y351000D02*
D03*
X577911Y348175D02*
D03*
X576000Y500000D02*
D03*
X577000Y505000D02*
D03*
X510500Y162500D02*
D03*
X508000Y170500D02*
D03*
X618500Y290000D02*
D03*
X635500Y345000D02*
D03*
X631500Y344000D02*
D03*
X619500Y297500D02*
D03*
X509500Y475000D02*
D03*
X523890Y366390D02*
D03*
X574500Y82500D02*
D03*
X567000Y83500D02*
D03*
X666500Y351000D02*
D03*
X660500Y348000D02*
D03*
X578000Y343013D02*
D03*
X327500Y339617D02*
D03*
X318000Y390000D02*
D03*
X267000Y339000D02*
D03*
X274000Y306000D02*
D03*
X292000Y315000D02*
D03*
X297000Y312500D02*
D03*
X285500Y297000D02*
D03*
X280000Y306500D02*
D03*
X293000Y365500D02*
D03*
X537500Y465000D02*
D03*
X514000D02*
D03*
X533000Y495500D02*
D03*
X539500Y504500D02*
D03*
X525500Y527500D02*
D03*
X562000Y515000D02*
D03*
X514500Y500000D02*
D03*
X521000D02*
D03*
X502500Y519500D02*
D03*
X497500Y514500D02*
D03*
X239500Y497500D02*
D03*
X248000Y520500D02*
D03*
X252500Y514500D02*
D03*
X231000Y506000D02*
D03*
X216000Y504000D02*
D03*
M02*
