M48
;Layer_Color=9474304
;FILE_FORMAT=4:4
METRIC,LZ
;TYPE=PLATED
T01F00S00C0.1778
T02F00S00C0.2540
T03F00S00C0.7112
T04F00S00C1.0000
T05F00S00C1.1000
T07F00S00C5.0000
%
T01
X0140864Y0037669
X0142264
X0143637
X0143664Y0039069
X0142264
X0140864
Y0040469
X0142264
X0143664
T02
X0144018Y0021209
X0145923Y0020955
X0143002Y0033147
X0139573
X0139644Y0036449
X01476213Y0035433
X0149987Y0036322
X01580515Y00390525
X01576205Y00396375
X0159893Y0037084
X0159639Y0048387
X0158877
X0162433Y0077216
X0157353Y0075565
X0157099Y007366
X0146685Y0075946
X0144399Y0071628
X0143383Y0070866
X0144399Y0067691
X01455015Y00683662
X0154432Y0055245
X0156845Y0048387
X0156083Y0040259
X0150114Y0041148
X0149606Y0041783
X0148336Y0043053
X0129032Y0043307
X0128143Y0042291
X0129667Y0041275
X0081026Y0043307
X0080899Y0050292
X0062992Y0046736
X005842Y0045593
X0069596Y0077724
X007112Y0077851
X0072517Y0075438
X0074168Y008001
X0075438Y0079375
X0071374Y0081026
X0067818Y0086106
X0074422Y0092837
X0080772Y009906
X0083185Y00862627
X0133068Y0093063
X0145034Y0090297
X01467893Y0090379
X0146685Y0089154
X01467893Y00884364
X0146812Y00871254
X0145415Y0086614
X0152146Y0084709
X0136525Y011811
X0130556
X0171196Y0115189
X0172974Y011557
X017272Y0092202
X0174371
X0172974Y0088138
X0173609Y0087376
X0169291Y0089154
X0167767Y0088392
X0161417Y008763
X0160401Y0087376
X0159385Y0087249
X0162433Y0085217
X0171323Y0136144
X0174117Y0138811
X0146558Y012827
X0146304Y0127
X0142748Y013081
X0137033Y0128143
X0135382Y0125857
X0132334Y0127
X0130683
X0129413Y012065
X0127635Y0131953
X0126365Y0130683
X0133477Y0133985
X0062992Y0132207
X0064135Y0130683
X0060833Y0126365
X0058674Y0128524
X0054864Y0128016
T03
X0048895Y0070104
X00364899Y00792071
T04
X0140462Y0018161
X0143002
X0145542
T05
X0178562Y0034036
Y0036576
Y0039116
Y0041656
X0178562Y0085852
Y0088392
Y0090932
Y0093472
X0178562Y0116967
Y0119507
Y0122047
Y0124587
Y0133858
Y0136398
Y0138938
Y0141478
T07
X0024003Y0014605
X018161
Y0146685
X0024003
M30
