G04*
G04 #@! TF.GenerationSoftware,Altium Limited,Altium Designer,24.9.1 (31)*
G04*
G04 Layer_Color=8388736*
%FSLAX25Y25*%
%MOIN*%
G70*
G04*
G04 #@! TF.SameCoordinates,8287A4C5-CB0D-4E90-9DB4-BFF006B876B5*
G04*
G04*
G04 #@! TF.FilePolarity,Negative*
G04*
G01*
G75*
%ADD15R,0.05906X0.03543*%
%ADD16R,0.03543X0.05906*%
%ADD17R,0.03543X0.03543*%
%ADD18R,0.03568X0.03563*%
G04:AMPARAMS|DCode=19|XSize=26.38mil|YSize=11.81mil|CornerRadius=1.95mil|HoleSize=0mil|Usage=FLASHONLY|Rotation=0.000|XOffset=0mil|YOffset=0mil|HoleType=Round|Shape=RoundedRectangle|*
%AMROUNDEDRECTD19*
21,1,0.02638,0.00791,0,0,0.0*
21,1,0.02248,0.01181,0,0,0.0*
1,1,0.00390,0.01124,-0.00396*
1,1,0.00390,-0.01124,-0.00396*
1,1,0.00390,-0.01124,0.00396*
1,1,0.00390,0.01124,0.00396*
%
%ADD19ROUNDEDRECTD19*%
%ADD23R,0.02362X0.02362*%
%ADD24R,0.32284X0.10236*%
%ADD25R,0.02756X0.02756*%
%ADD26R,0.04969X0.03378*%
%ADD27R,0.03378X0.04969*%
%ADD28R,0.01860X0.01843*%
%ADD29R,0.03937X0.04921*%
%ADD31R,0.02362X0.02362*%
%ADD32R,0.04969X0.03771*%
%ADD35R,0.01822X0.02190*%
%ADD44R,0.03771X0.04969*%
%ADD45R,0.03985X0.04168*%
%ADD46R,0.05315X0.03740*%
G04:AMPARAMS|DCode=47|XSize=58.04mil|YSize=23.03mil|CornerRadius=11.51mil|HoleSize=0mil|Usage=FLASHONLY|Rotation=180.000|XOffset=0mil|YOffset=0mil|HoleType=Round|Shape=RoundedRectangle|*
%AMROUNDEDRECTD47*
21,1,0.05804,0.00000,0,0,180.0*
21,1,0.03501,0.02303,0,0,180.0*
1,1,0.02303,-0.01750,0.00000*
1,1,0.02303,0.01750,0.00000*
1,1,0.02303,0.01750,0.00000*
1,1,0.02303,-0.01750,0.00000*
%
%ADD47ROUNDEDRECTD47*%
%ADD48R,0.05804X0.02303*%
%ADD52R,0.09843X0.12992*%
%ADD53R,0.07480X0.16339*%
%ADD59R,0.05512X0.03740*%
%ADD60R,0.06299X0.03937*%
%ADD61R,0.12992X0.04134*%
%ADD67R,0.04921X0.03937*%
%ADD68R,0.13005X0.21194*%
%ADD69R,0.06607X0.02572*%
%ADD70O,0.06312X0.03162*%
%ADD71R,0.06509X0.05721*%
%ADD72R,0.03241X0.03398*%
G04:AMPARAMS|DCode=73|XSize=25.72mil|YSize=69.02mil|CornerRadius=5.95mil|HoleSize=0mil|Usage=FLASHONLY|Rotation=90.000|XOffset=0mil|YOffset=0mil|HoleType=Round|Shape=RoundedRectangle|*
%AMROUNDEDRECTD73*
21,1,0.02572,0.05713,0,0,90.0*
21,1,0.01382,0.06902,0,0,90.0*
1,1,0.01190,0.02856,0.00691*
1,1,0.01190,0.02856,-0.00691*
1,1,0.01190,-0.02856,-0.00691*
1,1,0.01190,-0.02856,0.00691*
%
%ADD73ROUNDEDRECTD73*%
%ADD74R,0.07296X0.13595*%
%ADD75R,0.11509X0.04816*%
%ADD76R,0.03162X0.03556*%
%ADD77R,0.02454X0.02611*%
%ADD78R,0.05524X0.05524*%
%ADD79R,0.06706X0.07099*%
%ADD80R,0.15958X0.22453*%
%ADD81R,0.06706X0.18123*%
%ADD82R,0.06312X0.04934*%
%ADD83R,0.05721X0.05328*%
%ADD84R,0.02572X0.02572*%
%ADD85R,0.02572X0.02572*%
%ADD86R,0.08083X0.14776*%
%ADD87R,0.03280X0.02769*%
%ADD88R,0.02414X0.02769*%
%ADD89R,0.08280X0.10446*%
%ADD90R,0.06272X0.04580*%
%ADD91R,0.09461X0.07099*%
%ADD92R,0.09383X0.07099*%
%ADD93R,0.07099X0.09461*%
%ADD94R,0.07099X0.09383*%
%ADD95C,0.06800*%
%ADD96R,0.07296X0.07296*%
%ADD97C,0.07296*%
%ADD98R,0.20485X0.12611*%
%ADD99R,0.12611X0.20485*%
%ADD100C,0.06102*%
%ADD101R,0.06102X0.06102*%
%ADD102C,0.05800*%
%ADD103C,0.02300*%
D15*
X531551Y184209D02*
D03*
Y179209D02*
D03*
Y174209D02*
D03*
Y169209D02*
D03*
Y164209D02*
D03*
Y159209D02*
D03*
Y154209D02*
D03*
Y149209D02*
D03*
Y144209D02*
D03*
Y139209D02*
D03*
Y134209D02*
D03*
Y129209D02*
D03*
Y124209D02*
D03*
Y119209D02*
D03*
X600449D02*
D03*
Y124209D02*
D03*
Y129209D02*
D03*
Y134209D02*
D03*
Y139209D02*
D03*
Y144209D02*
D03*
Y149209D02*
D03*
Y154209D02*
D03*
Y159209D02*
D03*
Y164209D02*
D03*
Y169209D02*
D03*
Y174209D02*
D03*
Y179209D02*
D03*
Y184209D02*
D03*
D16*
X543500Y114287D02*
D03*
X548500D02*
D03*
X553500D02*
D03*
X558500D02*
D03*
X563500D02*
D03*
X568500D02*
D03*
X573500D02*
D03*
X578500D02*
D03*
X583500D02*
D03*
X588500D02*
D03*
D17*
X554583Y159327D02*
D03*
X560094D02*
D03*
X565606D02*
D03*
X554583Y153815D02*
D03*
X560094D02*
D03*
X565606D02*
D03*
X554583Y148303D02*
D03*
X560094D02*
D03*
X565606D02*
D03*
D18*
X327000Y169500D02*
D03*
Y174229D02*
D03*
D19*
X241413Y185968D02*
D03*
Y184000D02*
D03*
Y182032D02*
D03*
X235587D02*
D03*
Y184000D02*
D03*
Y185968D02*
D03*
X232913Y516968D02*
D03*
Y515000D02*
D03*
Y513031D02*
D03*
X227087D02*
D03*
Y515000D02*
D03*
Y516968D02*
D03*
D23*
X273000Y200567D02*
D03*
Y196433D02*
D03*
D24*
X276500Y175024D02*
D03*
Y152976D02*
D03*
D25*
X219000Y176744D02*
D03*
Y182256D02*
D03*
D26*
X497500Y180059D02*
D03*
X652000Y370559D02*
D03*
Y364441D02*
D03*
X653500Y337441D02*
D03*
Y343559D02*
D03*
X597000Y86441D02*
D03*
Y92559D02*
D03*
X497500Y173941D02*
D03*
X583000Y86941D02*
D03*
Y93059D02*
D03*
D27*
X559441Y225000D02*
D03*
X565559D02*
D03*
D28*
X254000Y201917D02*
D03*
Y205083D02*
D03*
X297000Y479417D02*
D03*
Y482583D02*
D03*
X262500Y293417D02*
D03*
Y296583D02*
D03*
X297000Y282417D02*
D03*
Y285583D02*
D03*
D29*
X607563Y256000D02*
D03*
X615437D02*
D03*
D31*
X291433Y396000D02*
D03*
X295567D02*
D03*
D32*
X403000Y493363D02*
D03*
Y487637D02*
D03*
D35*
X559500Y369609D02*
D03*
Y372391D02*
D03*
D44*
X525137Y543000D02*
D03*
X530863D02*
D03*
D45*
X297000Y510548D02*
D03*
Y517452D02*
D03*
D46*
X171500Y488453D02*
D03*
Y482547D02*
D03*
D47*
X472000Y518000D02*
D03*
X479364Y521740D02*
D03*
D48*
Y514260D02*
D03*
D52*
X316417Y354000D02*
D03*
X343583D02*
D03*
D53*
X389000Y342181D02*
D03*
Y314819D02*
D03*
D59*
X247000Y314858D02*
D03*
Y322142D02*
D03*
D60*
X622500Y308095D02*
D03*
Y319905D02*
D03*
D61*
X318500Y251752D02*
D03*
Y258248D02*
D03*
D67*
X486500Y138063D02*
D03*
Y145937D02*
D03*
D68*
X595067Y349425D02*
D03*
D69*
X606634Y366059D02*
D03*
Y363500D02*
D03*
Y360941D02*
D03*
Y358382D02*
D03*
Y355823D02*
D03*
Y353264D02*
D03*
Y350705D02*
D03*
Y348146D02*
D03*
Y345587D02*
D03*
Y343028D02*
D03*
Y340469D02*
D03*
Y337910D02*
D03*
Y335350D02*
D03*
Y332791D02*
D03*
X583500D02*
D03*
Y335350D02*
D03*
Y337910D02*
D03*
Y340469D02*
D03*
Y343028D02*
D03*
Y345587D02*
D03*
Y348146D02*
D03*
Y350705D02*
D03*
Y353264D02*
D03*
Y355823D02*
D03*
Y358382D02*
D03*
Y360941D02*
D03*
Y363500D02*
D03*
Y366059D02*
D03*
D70*
X546673Y525000D02*
D03*
Y520000D02*
D03*
Y515000D02*
D03*
Y510000D02*
D03*
Y505000D02*
D03*
Y500000D02*
D03*
Y495000D02*
D03*
Y490000D02*
D03*
X568327Y525000D02*
D03*
Y520000D02*
D03*
Y515000D02*
D03*
Y510000D02*
D03*
Y505000D02*
D03*
Y500000D02*
D03*
Y495000D02*
D03*
Y490000D02*
D03*
D71*
X327000Y518347D02*
D03*
Y511654D02*
D03*
D72*
X202000Y317732D02*
D03*
Y314268D02*
D03*
X264500Y314035D02*
D03*
Y317500D02*
D03*
D73*
X304153Y310161D02*
D03*
Y312720D02*
D03*
Y315280D02*
D03*
Y317839D02*
D03*
X285846Y310161D02*
D03*
Y312720D02*
D03*
Y315280D02*
D03*
Y317839D02*
D03*
D74*
X546220Y355500D02*
D03*
X523779D02*
D03*
X546220Y338000D02*
D03*
X523779D02*
D03*
D75*
X437500Y327488D02*
D03*
Y338512D02*
D03*
D76*
X459000Y376665D02*
D03*
Y372335D02*
D03*
X585000Y302665D02*
D03*
Y298335D02*
D03*
D77*
X480000Y486299D02*
D03*
Y483701D02*
D03*
X517000Y450701D02*
D03*
Y453299D02*
D03*
X454500Y345701D02*
D03*
Y348299D02*
D03*
X501500Y371201D02*
D03*
Y373799D02*
D03*
X486000Y321201D02*
D03*
Y323799D02*
D03*
D78*
X540205Y304937D02*
D03*
Y297063D02*
D03*
D79*
X553000Y301000D02*
D03*
D80*
X225500Y362500D02*
D03*
X264673D02*
D03*
D81*
X236004Y468500D02*
D03*
X223996D02*
D03*
D82*
X518000Y513740D02*
D03*
Y506260D02*
D03*
X465000Y465240D02*
D03*
Y457760D02*
D03*
X464500Y434760D02*
D03*
Y442240D02*
D03*
D83*
X518000Y489126D02*
D03*
Y479874D02*
D03*
D84*
X291925Y386500D02*
D03*
X295075D02*
D03*
D85*
X322000Y315075D02*
D03*
Y311925D02*
D03*
D86*
X176000Y323933D02*
D03*
Y303067D02*
D03*
D87*
X265500Y267323D02*
D03*
Y269882D02*
D03*
Y272441D02*
D03*
Y275000D02*
D03*
D88*
X253768D02*
D03*
Y272441D02*
D03*
Y269882D02*
D03*
Y267323D02*
D03*
D89*
X258315Y271161D02*
D03*
D90*
X286500Y261110D02*
D03*
Y254890D02*
D03*
D91*
X594410Y233500D02*
D03*
D92*
X630590D02*
D03*
D93*
X449000Y160091D02*
D03*
D94*
Y123909D02*
D03*
D95*
X715000Y57500D02*
D03*
X94500D02*
D03*
X715000Y577500D02*
D03*
X94500D02*
D03*
D96*
X703000Y460500D02*
D03*
Y527000D02*
D03*
Y134000D02*
D03*
X703000Y338000D02*
D03*
D97*
X703000Y470500D02*
D03*
Y480500D02*
D03*
Y490500D02*
D03*
Y537000D02*
D03*
Y547000D02*
D03*
Y557000D02*
D03*
Y164000D02*
D03*
Y154000D02*
D03*
Y144000D02*
D03*
X703000Y348000D02*
D03*
Y358000D02*
D03*
Y368000D02*
D03*
D98*
X107000Y329500D02*
D03*
D99*
X106000Y305000D02*
D03*
D100*
X553000Y71500D02*
D03*
X563000D02*
D03*
D101*
X573000D02*
D03*
D102*
X192500Y276000D02*
D03*
X143661Y311839D02*
D03*
D103*
X549780Y143500D02*
D03*
X549500Y130500D02*
D03*
X554583Y159327D02*
D03*
X565606D02*
D03*
X560094Y153815D02*
D03*
Y148303D02*
D03*
Y159327D02*
D03*
X554583Y148303D02*
D03*
X565500D02*
D03*
X554583Y153815D02*
D03*
X565606D02*
D03*
X318500Y198000D02*
D03*
X319000Y170500D02*
D03*
X230000Y179500D02*
D03*
X248000Y184000D02*
D03*
X577500Y299000D02*
D03*
X599000Y333500D02*
D03*
X572500Y341000D02*
D03*
X571000Y355500D02*
D03*
X281000Y319000D02*
D03*
X674500Y536000D02*
D03*
X685500Y546500D02*
D03*
X681000Y455000D02*
D03*
X674000Y453500D02*
D03*
X686500Y363000D02*
D03*
X680000D02*
D03*
X683500Y344000D02*
D03*
X681000Y347000D02*
D03*
X625500Y190500D02*
D03*
X628500D02*
D03*
X629500Y146000D02*
D03*
X620553Y156053D02*
D03*
X622250Y153750D02*
D03*
X608000Y217500D02*
D03*
X584000Y169500D02*
D03*
X581186Y139500D02*
D03*
X590500Y143000D02*
D03*
X504500Y166500D02*
D03*
X568500Y282000D02*
D03*
X627500Y343500D02*
D03*
X617500Y190500D02*
D03*
X589000Y164500D02*
D03*
X639500Y304000D02*
D03*
Y335500D02*
D03*
X563000Y130500D02*
D03*
X591000Y162000D02*
D03*
X572841Y269158D02*
D03*
X614500Y158500D02*
D03*
X568500Y266500D02*
D03*
X564500Y279000D02*
D03*
X577911Y355823D02*
D03*
X577500Y351000D02*
D03*
X577911Y348175D02*
D03*
X576000Y500000D02*
D03*
X577000Y505000D02*
D03*
X510500Y162500D02*
D03*
X508000Y170500D02*
D03*
X618500Y290000D02*
D03*
X635500Y345000D02*
D03*
X631500Y344000D02*
D03*
X619500Y297500D02*
D03*
X509500Y475000D02*
D03*
X523890Y366390D02*
D03*
X574500Y82500D02*
D03*
X567000Y83500D02*
D03*
X666500Y351000D02*
D03*
X660500Y348000D02*
D03*
X578000Y343013D02*
D03*
X327500Y339617D02*
D03*
X318000Y390000D02*
D03*
X267000Y339000D02*
D03*
X274000Y306000D02*
D03*
X292000Y315000D02*
D03*
X297000Y312500D02*
D03*
X285500Y297000D02*
D03*
X280000Y306500D02*
D03*
X293000Y365500D02*
D03*
X537500Y465000D02*
D03*
X514000D02*
D03*
X533000Y495500D02*
D03*
X539500Y504500D02*
D03*
X525500Y527500D02*
D03*
X562000Y515000D02*
D03*
X514500Y500000D02*
D03*
X521000D02*
D03*
X502500Y519500D02*
D03*
X497500Y514500D02*
D03*
X239500Y497500D02*
D03*
X248000Y520500D02*
D03*
X252500Y514500D02*
D03*
X231000Y506000D02*
D03*
X216000Y504000D02*
D03*
M02*
