G04*
G04 #@! TF.GenerationSoftware,Altium Limited,Altium Designer,24.9.1 (31)*
G04*
G04 Layer_Color=16711935*
%FSLAX25Y25*%
%MOIN*%
G70*
G04*
G04 #@! TF.SameCoordinates,8287A4C5-CB0D-4E90-9DB4-BFF006B876B5*
G04*
G04*
G04 #@! TF.FilePolarity,Negative*
G04*
G01*
G75*
%ADD95C,0.06800*%
%ADD96R,0.07296X0.07296*%
%ADD97C,0.07296*%
%ADD98R,0.20485X0.12611*%
%ADD99R,0.12611X0.20485*%
%ADD100C,0.06102*%
%ADD101R,0.06102X0.06102*%
%ADD102C,0.05800*%
%ADD103C,0.02300*%
D95*
X715000Y57500D02*
D03*
X94500D02*
D03*
X715000Y577500D02*
D03*
X94500D02*
D03*
D96*
X703000Y460500D02*
D03*
Y527000D02*
D03*
Y134000D02*
D03*
X703000Y338000D02*
D03*
D97*
X703000Y470500D02*
D03*
Y480500D02*
D03*
Y490500D02*
D03*
Y537000D02*
D03*
Y547000D02*
D03*
Y557000D02*
D03*
Y164000D02*
D03*
Y154000D02*
D03*
Y144000D02*
D03*
X703000Y348000D02*
D03*
Y358000D02*
D03*
Y368000D02*
D03*
D98*
X107000Y329500D02*
D03*
D99*
X106000Y305000D02*
D03*
D100*
X553000Y71500D02*
D03*
X563000D02*
D03*
D101*
X573000D02*
D03*
D102*
X192500Y276000D02*
D03*
X143661Y311839D02*
D03*
D103*
X549780Y143500D02*
D03*
X549500Y130500D02*
D03*
X554583Y159327D02*
D03*
X565606D02*
D03*
X560094Y153815D02*
D03*
Y148303D02*
D03*
Y159327D02*
D03*
X554583Y148303D02*
D03*
X565500D02*
D03*
X554583Y153815D02*
D03*
X565606D02*
D03*
X318500Y198000D02*
D03*
X319000Y170500D02*
D03*
X230000Y179500D02*
D03*
X248000Y184000D02*
D03*
X577500Y299000D02*
D03*
X599000Y333500D02*
D03*
X572500Y341000D02*
D03*
X571000Y355500D02*
D03*
X281000Y319000D02*
D03*
X674500Y536000D02*
D03*
X685500Y546500D02*
D03*
X681000Y455000D02*
D03*
X674000Y453500D02*
D03*
X686500Y363000D02*
D03*
X680000D02*
D03*
X683500Y344000D02*
D03*
X681000Y347000D02*
D03*
X625500Y190500D02*
D03*
X628500D02*
D03*
X629500Y146000D02*
D03*
X620553Y156053D02*
D03*
X622250Y153750D02*
D03*
X608000Y217500D02*
D03*
X584000Y169500D02*
D03*
X581186Y139500D02*
D03*
X590500Y143000D02*
D03*
X504500Y166500D02*
D03*
X568500Y282000D02*
D03*
X627500Y343500D02*
D03*
X617500Y190500D02*
D03*
X589000Y164500D02*
D03*
X639500Y304000D02*
D03*
Y335500D02*
D03*
X563000Y130500D02*
D03*
X591000Y162000D02*
D03*
X572841Y269158D02*
D03*
X614500Y158500D02*
D03*
X568500Y266500D02*
D03*
X564500Y279000D02*
D03*
X577911Y355823D02*
D03*
X577500Y351000D02*
D03*
X577911Y348175D02*
D03*
X576000Y500000D02*
D03*
X577000Y505000D02*
D03*
X510500Y162500D02*
D03*
X508000Y170500D02*
D03*
X618500Y290000D02*
D03*
X635500Y345000D02*
D03*
X631500Y344000D02*
D03*
X619500Y297500D02*
D03*
X509500Y475000D02*
D03*
X523890Y366390D02*
D03*
X574500Y82500D02*
D03*
X567000Y83500D02*
D03*
X666500Y351000D02*
D03*
X660500Y348000D02*
D03*
X578000Y343013D02*
D03*
X327500Y339617D02*
D03*
X318000Y390000D02*
D03*
X267000Y339000D02*
D03*
X274000Y306000D02*
D03*
X292000Y315000D02*
D03*
X297000Y312500D02*
D03*
X285500Y297000D02*
D03*
X280000Y306500D02*
D03*
X293000Y365500D02*
D03*
X537500Y465000D02*
D03*
X514000D02*
D03*
X533000Y495500D02*
D03*
X539500Y504500D02*
D03*
X525500Y527500D02*
D03*
X562000Y515000D02*
D03*
X514500Y500000D02*
D03*
X521000D02*
D03*
X502500Y519500D02*
D03*
X497500Y514500D02*
D03*
X239500Y497500D02*
D03*
X248000Y520500D02*
D03*
X252500Y514500D02*
D03*
X231000Y506000D02*
D03*
X216000Y504000D02*
D03*
M02*
