G04*
G04 #@! TF.GenerationSoftware,Altium Limited,Altium Designer,24.9.1 (31)*
G04*
G04 Layer_Physical_Order=1*
G04 Layer_Color=255*
%FSLAX25Y25*%
%MOIN*%
G70*
G04*
G04 #@! TF.SameCoordinates,8287A4C5-CB0D-4E90-9DB4-BFF006B876B5*
G04*
G04*
G04 #@! TF.FilePolarity,Positive*
G04*
G01*
G75*
%ADD14C,0.01000*%
%ADD15R,0.05906X0.03543*%
%ADD16R,0.03543X0.05906*%
%ADD17R,0.03543X0.03543*%
%ADD18R,0.03568X0.03563*%
G04:AMPARAMS|DCode=19|XSize=26.38mil|YSize=11.81mil|CornerRadius=1.95mil|HoleSize=0mil|Usage=FLASHONLY|Rotation=0.000|XOffset=0mil|YOffset=0mil|HoleType=Round|Shape=RoundedRectangle|*
%AMROUNDEDRECTD19*
21,1,0.02638,0.00791,0,0,0.0*
21,1,0.02248,0.01181,0,0,0.0*
1,1,0.00390,0.01124,-0.00396*
1,1,0.00390,-0.01124,-0.00396*
1,1,0.00390,-0.01124,0.00396*
1,1,0.00390,0.01124,0.00396*
%
%ADD19ROUNDEDRECTD19*%
%ADD20R,0.12205X0.20394*%
%ADD21R,0.05807X0.01772*%
%ADD22O,0.05512X0.02362*%
%ADD23R,0.02362X0.02362*%
%ADD24R,0.32284X0.10236*%
%ADD25R,0.02756X0.02756*%
%ADD26R,0.04969X0.03378*%
%ADD27R,0.03378X0.04969*%
%ADD28R,0.01860X0.01843*%
%ADD29R,0.03937X0.04921*%
%ADD30R,0.05709X0.04921*%
%ADD31R,0.02362X0.02362*%
%ADD32R,0.04969X0.03771*%
%ADD33R,0.02441X0.02598*%
G04:AMPARAMS|DCode=34|XSize=17.72mil|YSize=61.02mil|CornerRadius=1.95mil|HoleSize=0mil|Usage=FLASHONLY|Rotation=90.000|XOffset=0mil|YOffset=0mil|HoleType=Round|Shape=RoundedRectangle|*
%AMROUNDEDRECTD34*
21,1,0.01772,0.05713,0,0,90.0*
21,1,0.01382,0.06102,0,0,90.0*
1,1,0.00390,0.02856,0.00691*
1,1,0.00390,0.02856,-0.00691*
1,1,0.00390,-0.02856,-0.00691*
1,1,0.00390,-0.02856,0.00691*
%
%ADD34ROUNDEDRECTD34*%
%ADD35R,0.01822X0.02190*%
%ADD36R,0.06496X0.12795*%
%ADD37R,0.10709X0.04016*%
%ADD38R,0.02362X0.02756*%
%ADD39R,0.01654X0.01811*%
%ADD40R,0.04724X0.04724*%
%ADD41R,0.05906X0.06299*%
%ADD42R,0.15158X0.21654*%
%ADD43R,0.05906X0.17323*%
%ADD44R,0.03771X0.04969*%
%ADD45R,0.03985X0.04168*%
%ADD46R,0.05315X0.03740*%
G04:AMPARAMS|DCode=47|XSize=58.04mil|YSize=23.03mil|CornerRadius=11.51mil|HoleSize=0mil|Usage=FLASHONLY|Rotation=180.000|XOffset=0mil|YOffset=0mil|HoleType=Round|Shape=RoundedRectangle|*
%AMROUNDEDRECTD47*
21,1,0.05804,0.00000,0,0,180.0*
21,1,0.03501,0.02303,0,0,180.0*
1,1,0.02303,-0.01750,0.00000*
1,1,0.02303,0.01750,0.00000*
1,1,0.02303,0.01750,0.00000*
1,1,0.02303,-0.01750,0.00000*
%
%ADD47ROUNDEDRECTD47*%
%ADD48R,0.05804X0.02303*%
%ADD49R,0.05512X0.04134*%
%ADD50R,0.04921X0.04528*%
%ADD51R,0.01772X0.01772*%
%ADD52R,0.09843X0.12992*%
%ADD53R,0.07480X0.16339*%
%ADD54R,0.01772X0.01772*%
%ADD55R,0.07284X0.13976*%
%ADD56R,0.02480X0.01968*%
%ADD57R,0.01614X0.01968*%
%ADD58R,0.07480X0.09646*%
%ADD59R,0.05512X0.03740*%
%ADD60R,0.06299X0.03937*%
%ADD61R,0.12992X0.04134*%
%ADD62R,0.05472X0.03780*%
%ADD63R,0.08661X0.06299*%
%ADD64R,0.08583X0.06299*%
%ADD65R,0.06299X0.08661*%
%ADD66R,0.06299X0.08583*%
%ADD67R,0.04921X0.03937*%
%ADD100C,0.06102*%
%ADD101R,0.06102X0.06102*%
%ADD104C,0.03000*%
%ADD105C,0.04000*%
%ADD106C,0.03500*%
%ADD107C,0.02000*%
%ADD108C,0.02300*%
%ADD109C,0.01500*%
%ADD110C,0.02500*%
%ADD111C,0.01400*%
%ADD112C,0.01900*%
%ADD113C,0.02200*%
%ADD114C,0.06000*%
%ADD115R,0.06496X0.06496*%
%ADD116C,0.06496*%
%ADD117R,0.19685X0.11811*%
%ADD118R,0.11811X0.19685*%
%ADD119C,0.05000*%
%ADD120C,0.01500*%
D14*
X257035Y269882D02*
X258315Y271161D01*
X255075Y275000D02*
X258315Y271760D01*
Y271161D02*
Y271760D01*
Y270563D02*
Y271161D01*
X253768Y267323D02*
X255075D01*
X258315Y270563D01*
X253768Y269882D02*
X257035D01*
X253768Y272441D02*
X257035D01*
X253768Y275000D02*
X255075D01*
D15*
X531551Y184209D02*
D03*
Y179209D02*
D03*
Y174209D02*
D03*
Y169209D02*
D03*
Y164209D02*
D03*
Y159209D02*
D03*
Y154209D02*
D03*
Y149209D02*
D03*
Y144209D02*
D03*
Y139209D02*
D03*
Y134209D02*
D03*
Y129209D02*
D03*
Y124209D02*
D03*
Y119209D02*
D03*
X600449D02*
D03*
Y124209D02*
D03*
Y129209D02*
D03*
Y134209D02*
D03*
Y139209D02*
D03*
Y144209D02*
D03*
Y149209D02*
D03*
Y154209D02*
D03*
Y159209D02*
D03*
Y164209D02*
D03*
Y169209D02*
D03*
Y174209D02*
D03*
Y179209D02*
D03*
Y184209D02*
D03*
D16*
X543500Y114287D02*
D03*
X548500D02*
D03*
X553500D02*
D03*
X558500D02*
D03*
X563500D02*
D03*
X568500D02*
D03*
X573500D02*
D03*
X578500D02*
D03*
X583500D02*
D03*
X588500D02*
D03*
D17*
X554583Y159327D02*
D03*
X560094D02*
D03*
X565606D02*
D03*
X554583Y153815D02*
D03*
X560094D02*
D03*
X565606D02*
D03*
X554583Y148303D02*
D03*
X560094D02*
D03*
X565606D02*
D03*
D18*
X327000Y169500D02*
D03*
Y174229D02*
D03*
D19*
X241413Y185968D02*
D03*
Y184000D02*
D03*
Y182032D02*
D03*
X235587D02*
D03*
Y184000D02*
D03*
Y185968D02*
D03*
X232913Y516968D02*
D03*
Y515000D02*
D03*
Y513031D02*
D03*
X227087D02*
D03*
Y515000D02*
D03*
Y516968D02*
D03*
D20*
X595067Y349425D02*
D03*
D21*
X606634Y366059D02*
D03*
Y363500D02*
D03*
Y360941D02*
D03*
Y358382D02*
D03*
Y355823D02*
D03*
Y353264D02*
D03*
Y350705D02*
D03*
Y348146D02*
D03*
Y345587D02*
D03*
Y343028D02*
D03*
Y340469D02*
D03*
Y337910D02*
D03*
Y335350D02*
D03*
Y332791D02*
D03*
X583500D02*
D03*
Y335350D02*
D03*
Y337910D02*
D03*
Y340469D02*
D03*
Y343028D02*
D03*
Y345587D02*
D03*
Y348146D02*
D03*
Y350705D02*
D03*
Y353264D02*
D03*
Y355823D02*
D03*
Y358382D02*
D03*
Y360941D02*
D03*
Y363500D02*
D03*
Y366059D02*
D03*
D22*
X546673Y525000D02*
D03*
Y520000D02*
D03*
Y515000D02*
D03*
Y510000D02*
D03*
Y505000D02*
D03*
Y500000D02*
D03*
Y495000D02*
D03*
Y490000D02*
D03*
X568327Y525000D02*
D03*
Y520000D02*
D03*
Y515000D02*
D03*
Y510000D02*
D03*
Y505000D02*
D03*
Y500000D02*
D03*
Y495000D02*
D03*
Y490000D02*
D03*
D23*
X273000Y200567D02*
D03*
Y196433D02*
D03*
D24*
X276500Y175024D02*
D03*
Y152976D02*
D03*
D25*
X219000Y176744D02*
D03*
Y182256D02*
D03*
D26*
X497500Y180059D02*
D03*
X652000Y370559D02*
D03*
Y364441D02*
D03*
X653500Y337441D02*
D03*
Y343559D02*
D03*
X597000Y86441D02*
D03*
Y92559D02*
D03*
X497500Y173941D02*
D03*
X583000Y86941D02*
D03*
Y93059D02*
D03*
D27*
X559441Y225000D02*
D03*
X565559D02*
D03*
D28*
X254000Y201917D02*
D03*
Y205083D02*
D03*
X297000Y479417D02*
D03*
Y482583D02*
D03*
X262500Y293417D02*
D03*
Y296583D02*
D03*
X297000Y282417D02*
D03*
Y285583D02*
D03*
D29*
X607563Y256000D02*
D03*
X615437D02*
D03*
D30*
X327000Y518347D02*
D03*
Y511654D02*
D03*
D31*
X291433Y396000D02*
D03*
X295567D02*
D03*
D32*
X403000Y493363D02*
D03*
Y487637D02*
D03*
D33*
X202000Y317732D02*
D03*
Y314268D02*
D03*
X264500Y314035D02*
D03*
Y317500D02*
D03*
D34*
X304153Y310161D02*
D03*
Y312720D02*
D03*
Y315280D02*
D03*
Y317839D02*
D03*
X285846Y310161D02*
D03*
Y312720D02*
D03*
Y315280D02*
D03*
Y317839D02*
D03*
D35*
X559500Y369609D02*
D03*
Y372391D02*
D03*
D36*
X546220Y355500D02*
D03*
X523779D02*
D03*
X546220Y338000D02*
D03*
X523779D02*
D03*
D37*
X437500Y327488D02*
D03*
Y338512D02*
D03*
D38*
X459000Y376665D02*
D03*
Y372335D02*
D03*
X585000Y302665D02*
D03*
Y298335D02*
D03*
D39*
X480000Y486299D02*
D03*
Y483701D02*
D03*
X517000Y450701D02*
D03*
Y453299D02*
D03*
X454500Y345701D02*
D03*
Y348299D02*
D03*
X501500Y371201D02*
D03*
Y373799D02*
D03*
X486000Y321201D02*
D03*
Y323799D02*
D03*
D40*
X540205Y304937D02*
D03*
Y297063D02*
D03*
D41*
X553000Y301000D02*
D03*
D42*
X225500Y362500D02*
D03*
X264673D02*
D03*
D43*
X236004Y468500D02*
D03*
X223996D02*
D03*
D44*
X525137Y543000D02*
D03*
X530863D02*
D03*
D45*
X297000Y510548D02*
D03*
Y517452D02*
D03*
D46*
X171500Y488453D02*
D03*
Y482547D02*
D03*
D47*
X472000Y518000D02*
D03*
X479364Y521740D02*
D03*
D48*
Y514260D02*
D03*
D49*
X518000Y513740D02*
D03*
Y506260D02*
D03*
X465000Y465240D02*
D03*
Y457760D02*
D03*
X464500Y434760D02*
D03*
Y442240D02*
D03*
D50*
X518000Y489126D02*
D03*
Y479874D02*
D03*
D51*
X291925Y386500D02*
D03*
X295075D02*
D03*
D52*
X316417Y354000D02*
D03*
X343583D02*
D03*
D53*
X389000Y342181D02*
D03*
Y314819D02*
D03*
D54*
X322000Y315075D02*
D03*
Y311925D02*
D03*
D55*
X176000Y323933D02*
D03*
Y303067D02*
D03*
D56*
X265500Y267323D02*
D03*
Y269882D02*
D03*
Y272441D02*
D03*
Y275000D02*
D03*
D57*
X253768D02*
D03*
Y272441D02*
D03*
Y269882D02*
D03*
Y267323D02*
D03*
D58*
X258315Y271161D02*
D03*
D59*
X247000Y314858D02*
D03*
Y322142D02*
D03*
D60*
X622500Y308095D02*
D03*
Y319905D02*
D03*
D61*
X318500Y251752D02*
D03*
Y258248D02*
D03*
D62*
X286500Y261110D02*
D03*
Y254890D02*
D03*
D63*
X594410Y233500D02*
D03*
D64*
X630590D02*
D03*
D65*
X449000Y160091D02*
D03*
D66*
Y123909D02*
D03*
D67*
X486500Y138063D02*
D03*
Y145937D02*
D03*
D100*
X553000Y71500D02*
D03*
X563000D02*
D03*
D101*
X573000D02*
D03*
D104*
X192500Y276000D02*
X202691Y265809D01*
Y198565D02*
Y265809D01*
Y198565D02*
X219224Y182032D01*
X143661Y323779D02*
X144000Y324118D01*
X202000Y314000D02*
X223443D01*
X244443Y293000D02*
X262500D01*
X176000Y323933D02*
Y478835D01*
X172287Y482547D02*
X176000Y478835D01*
X171500Y482547D02*
X184453D01*
X176000Y324366D02*
X195366D01*
X176433Y303500D02*
X195000D01*
X176000Y303067D02*
X176433Y303500D01*
X195000D02*
X202000Y310500D01*
Y314000D01*
X300390Y261110D02*
X303252Y258248D01*
X271713Y261110D02*
X300390D01*
X303252Y258248D02*
X318500D01*
X303083Y282417D02*
X318500Y267000D01*
Y258248D02*
Y267000D01*
X297000Y282417D02*
X303083D01*
X389000Y314819D02*
X421484D01*
X434154Y327488D01*
X389000Y342181D02*
X430484D01*
X434154Y338512D01*
X369000Y340000D02*
X386819D01*
X355000Y354000D02*
X369000Y340000D01*
X343583Y354000D02*
X355000D01*
X239222Y298221D02*
X244443Y293000D01*
X223443Y314000D02*
X239222Y298221D01*
X264000Y332500D02*
X294500D01*
X304000Y323000D01*
X235821Y360679D02*
X264000Y332500D01*
X265500Y267323D02*
X271713Y261110D01*
X227321Y360679D02*
X235821D01*
X225500Y362500D02*
X227321Y360679D01*
X304000Y319000D02*
Y323000D01*
X265173Y362000D02*
X291500D01*
X299500Y354000D02*
X316417D01*
X291500Y362000D02*
X299500Y354000D01*
X262500Y297500D02*
Y311500D01*
X264000Y313000D01*
X259858Y322142D02*
X264500Y317500D01*
X247000Y322142D02*
X259858D01*
X224301Y314858D02*
X247000D01*
X223443Y314000D02*
X224301Y314858D01*
X225500Y341232D02*
Y362500D01*
X202000Y317732D02*
X225500Y341232D01*
X195366Y324366D02*
X202000Y317732D01*
X198500Y468500D02*
X223996D01*
X184453Y482547D02*
X198500Y468500D01*
D105*
X144000Y324118D02*
X174358D01*
X137882D02*
X144000D01*
X132500Y329500D02*
X137882Y324118D01*
X108000Y303000D02*
X174358D01*
X106000Y305000D02*
X108000Y303000D01*
X107000Y329500D02*
X132500D01*
D106*
X143661Y311839D02*
Y323779D01*
D107*
X176000Y271000D02*
Y302000D01*
Y271000D02*
X189000Y258000D01*
Y198500D02*
Y258000D01*
Y198500D02*
X210756Y176744D01*
X219000D01*
X599000Y333500D02*
X600924Y335424D01*
X608500D01*
X583485Y340484D02*
X583500Y340469D01*
X573016Y340484D02*
X583485D01*
X572500Y341000D02*
X573016Y340484D01*
X571809Y358382D02*
X583500D01*
X560118D02*
X571809D01*
X571000Y357573D02*
X571809Y358382D01*
X571000Y355500D02*
Y357573D01*
X583500Y335350D02*
Y337910D01*
X646000Y337500D02*
X653441D01*
X606748Y332677D02*
X608547D01*
X643032Y340469D02*
X646000Y337500D01*
X606634Y332791D02*
X606748Y332677D01*
X606634Y340469D02*
X643032D01*
X606634Y332791D02*
X654000D01*
X608547Y332677D02*
X621319Y319905D01*
X583500Y355823D02*
X586000D01*
X577911D02*
X583500D01*
X577500Y351000D02*
X577795Y350705D01*
X583500D01*
X578001Y348175D02*
X583500Y348146D01*
X586001Y348132D01*
X650500Y322500D02*
Y329291D01*
X589835Y293500D02*
X621500D01*
X650500Y322500D01*
X654000Y332791D02*
X660791D01*
X650500Y329291D02*
X654000Y332791D01*
X585000Y298138D02*
X585181Y297957D01*
X585378D01*
X585000Y298138D02*
Y298335D01*
X585378Y297957D02*
X589835Y293500D01*
X653500Y343559D02*
X653559Y343500D01*
X662828D02*
X664000Y342328D01*
Y336000D02*
Y342328D01*
X653559Y343500D02*
X662828D01*
X660791Y332791D02*
X664000Y336000D01*
X549201Y373799D02*
X562059Y360941D01*
X547501Y370999D02*
X560118Y358382D01*
X562059Y360941D02*
X583500D01*
X584500D01*
X578000Y343013D02*
X583500Y342984D01*
X586089Y342970D01*
X501500Y370999D02*
X547501D01*
X565519Y363591D02*
X583024D01*
X559595Y369514D02*
X565519Y363591D01*
X501500Y373799D02*
X549201D01*
X559500Y369603D02*
X559589Y369514D01*
X559595D01*
X621319Y319905D02*
X622500D01*
X653441Y337500D02*
X653500Y337441D01*
Y343559D02*
Y363736D01*
X652795Y364441D02*
X653500Y363736D01*
X652000Y364441D02*
X652795D01*
X634500Y363500D02*
X641559Y370559D01*
X652000D01*
X606634Y363500D02*
X634500D01*
X553000Y314500D02*
X573850Y335350D01*
X583500D01*
X553000Y301197D02*
Y314500D01*
Y301000D02*
Y301197D01*
X571000Y303000D02*
X584819D01*
X585000Y302665D02*
Y302819D01*
X584819Y303000D02*
X585000Y302819D01*
X569000Y301000D02*
X571000Y303000D01*
X553000Y301000D02*
X569000D01*
X540205Y304937D02*
X549260D01*
X553000Y301197D01*
X559500Y369603D02*
Y369609D01*
X583500Y366059D02*
Y370000D01*
X581110Y372391D02*
X583500Y370000D01*
X559500Y372391D02*
X581110D01*
D108*
X583000Y332500D02*
X607406Y308095D01*
X583000Y332500D02*
X593220D01*
X565500Y148303D02*
X565606Y148409D01*
X543500Y114287D02*
Y124500D01*
Y97568D02*
Y114287D01*
X486000Y320000D02*
X508929D01*
X485000Y321000D02*
X486000Y320000D01*
X549780Y143500D02*
X554583Y148303D01*
X543500Y124500D02*
X549500Y130500D01*
X554583Y159327D02*
Y163235D01*
Y153815D02*
Y159327D01*
X535187Y182630D02*
X554583Y163235D01*
X560094Y148303D02*
Y153815D01*
X565606D01*
X560094Y159327D02*
X565606D01*
X560094Y153815D02*
Y159327D01*
X565779Y159500D02*
X569000D01*
X565606Y159327D02*
X565779Y159500D01*
X565606Y148409D02*
Y153815D01*
X554583D02*
X560094D01*
X554583Y148303D02*
Y153815D01*
X318500Y198000D02*
Y251752D01*
X319000Y170500D02*
X320000Y169500D01*
X327000D01*
X339500D01*
X647000Y134000D02*
X703000D01*
X606791Y174209D02*
X647000Y134000D01*
X643000Y144000D02*
X703000D01*
X600449Y179209D02*
X607791D01*
X643000Y144000D01*
X594000Y224847D02*
Y233090D01*
X595347Y223500D02*
X602000D01*
X594000Y233090D02*
X594410Y233500D01*
X594000Y224847D02*
X595347Y223500D01*
X602000D02*
X608000Y217500D01*
X584000Y160500D02*
Y169500D01*
Y160500D02*
X594400Y150100D01*
Y123200D02*
Y150100D01*
Y123200D02*
X596813Y120787D01*
X597689D01*
X599268Y119209D01*
X600449D01*
X523890Y366390D02*
X524000Y366500D01*
X589000Y164500D02*
X593709Y169209D01*
X600449D01*
X593209Y164209D02*
X600449D01*
X591000Y162000D02*
X593209Y164209D01*
X607406Y308095D02*
X621319D01*
X620500Y307276D02*
X621319Y308095D01*
X619500Y297500D02*
Y305095D01*
X621319Y308095D02*
X622500D01*
X620500Y306095D02*
Y307276D01*
X619500Y305095D02*
X620500Y306095D01*
X615437Y286937D02*
X618500Y290000D01*
X615437Y256000D02*
Y286937D01*
X512929Y475000D02*
X517803Y479874D01*
X509500Y475000D02*
X512929D01*
X517803Y479874D02*
X518000D01*
X523779Y366280D02*
X523890Y366390D01*
X523779Y355500D02*
Y366280D01*
X600449Y174209D02*
X606791D01*
X573000Y71500D02*
Y81000D01*
X574500Y82500D01*
X563000Y79500D02*
X567000Y83500D01*
X563000Y71500D02*
Y79500D01*
X553000Y78500D02*
Y88068D01*
X582941Y87000D02*
X583000Y86941D01*
X561500Y87000D02*
X582941D01*
X553000Y78500D02*
X561500Y87000D01*
X553000Y71500D02*
Y78500D01*
X543500Y97568D02*
X553000Y88068D01*
X471854Y123909D02*
X524264Y71500D01*
X553000D01*
X384500Y124500D02*
X448410D01*
X449000Y123909D01*
X339500Y169500D02*
X384500Y124500D01*
X583000Y86941D02*
X583250Y86691D01*
X596750D01*
X597000Y86441D01*
X597500Y93059D02*
Y104106D01*
X597000Y92559D02*
X597500Y93059D01*
X588500Y113106D02*
X597500Y104106D01*
X588500Y113106D02*
Y114287D01*
X583000Y93059D02*
X583250Y93309D01*
Y114037D01*
X583500Y114287D01*
X601630Y184209D02*
X630590Y213169D01*
Y233500D01*
X600449Y184209D02*
X601630D01*
X615437Y255508D02*
X630590Y240354D01*
Y233500D02*
Y240354D01*
X615437Y255508D02*
Y256000D01*
X607563Y255508D02*
Y256000D01*
X594410Y233500D02*
Y242354D01*
X607563Y255508D01*
X584728Y225000D02*
X593228Y233500D01*
X594410D01*
X565559Y225000D02*
X584728D01*
X569000Y159500D02*
X593709Y184209D01*
X600449D01*
X534311Y182630D02*
X535187D01*
X532732Y184209D02*
X534311Y182630D01*
X531551Y184209D02*
X532732D01*
X449000Y123909D02*
X471854D01*
X486008Y138063D01*
X596536Y366036D02*
X605536D01*
X595067Y364567D02*
X596536Y366036D01*
X595067Y349425D02*
Y364567D01*
X523779Y338000D02*
Y355500D01*
X500500Y370999D02*
X501500D01*
X595067Y334347D02*
Y349425D01*
X593220Y332500D02*
X595067Y334347D01*
X508929Y320000D02*
X523500Y334571D01*
Y336146D01*
Y302000D02*
Y334571D01*
Y336146D02*
X523779Y336425D01*
X528437Y297063D02*
X540205D01*
X523500Y302000D02*
X528437Y297063D01*
X440846Y327488D02*
X461012D01*
X437500D02*
X440846D01*
X467500Y321000D02*
X485000D01*
X461012Y327488D02*
X467500Y321000D01*
X461500Y348299D02*
X486000Y323799D01*
X454500Y348299D02*
X461500D01*
X499501Y370000D02*
X500500Y370999D01*
X461335Y370000D02*
X499501D01*
X459228Y372107D02*
X461335Y370000D01*
X459000Y372138D02*
Y372335D01*
Y372138D02*
X459031Y372107D01*
X459228D01*
X498634Y376665D02*
X501500Y373799D01*
X459000Y376665D02*
X498634D01*
X454500Y348299D02*
Y367638D01*
X459000Y372138D01*
X440846Y327488D02*
X454500Y341142D01*
Y344500D01*
X444500Y348500D02*
X454299D01*
X454500Y348299D01*
X437500Y338512D02*
X440846D01*
X441704Y339370D01*
Y345704D01*
X444500Y348500D01*
X434154Y327488D02*
X437500D01*
X434154Y338512D02*
X437500D01*
X386819Y340000D02*
X389000Y342181D01*
X327500Y311925D02*
X386410D01*
X322000D02*
X327500D01*
Y339617D01*
X312000Y396000D02*
X318000Y390000D01*
X295567Y396000D02*
X312000D01*
X238500Y269500D02*
Y297500D01*
X239222Y298221D01*
X238500Y269500D02*
X253110Y254890D01*
X286500D01*
X265173Y362000D02*
X267000Y360173D01*
Y339000D02*
Y360173D01*
X264673Y362500D02*
X265173Y362000D01*
X274500Y295000D02*
Y305500D01*
X274000Y306000D02*
X274500Y305500D01*
X258315Y271760D02*
Y278815D01*
X274500Y295000D01*
X265185Y293185D02*
X268000Y296000D01*
X263280Y293185D02*
X265185D01*
X268000Y296000D02*
Y307500D01*
X286108Y309900D02*
X303892D01*
X304153Y310161D01*
X270661D02*
X285846D01*
X268000Y307500D02*
X270661Y310161D01*
X285846D02*
X286108Y309900D01*
X270650Y316850D02*
X272220Y315280D01*
X264970Y317000D02*
X267735D01*
X267885Y316850D01*
X270650D01*
X272220Y315280D02*
X285846D01*
X327000Y386500D02*
X343583Y369917D01*
X296000Y386500D02*
X327000D01*
X343583Y354000D02*
Y369917D01*
X291433Y386992D02*
X291925Y386500D01*
X291433Y386992D02*
Y396000D01*
X287347Y254890D02*
X290484Y251752D01*
X286500Y254890D02*
X287347D01*
X290484Y251752D02*
X318500D01*
X389000Y314515D02*
Y314819D01*
X386410Y311925D02*
X389000Y314515D01*
X320236Y310161D02*
X322000Y311925D01*
X304153Y310161D02*
X320236D01*
X304153Y315280D02*
X321795D01*
D109*
X228969Y184031D02*
X235587D01*
X219000Y177000D02*
X237000D01*
X171500Y488453D02*
Y497500D01*
X178000Y504000D02*
X216000D01*
X171500Y497500D02*
X178000Y504000D01*
X223996Y510925D02*
X227087Y514016D01*
X230000Y179500D02*
X230797D01*
X232500Y181203D01*
Y182032D01*
X235587D01*
X219224D02*
X232500D01*
X257500Y152500D02*
X276024D01*
X249000Y161000D02*
Y174445D01*
Y161000D02*
X257500Y152500D01*
X241982Y181463D02*
X249000Y174445D01*
X276024Y152500D02*
X276500Y152976D01*
X241413Y182032D02*
X241823D01*
X241982Y181872D01*
Y181463D02*
Y181872D01*
X271650Y201917D02*
X273000Y200567D01*
X254000Y201917D02*
X271650D01*
X235500Y192500D02*
X244917Y201917D01*
X235500Y186528D02*
Y192500D01*
X244917Y201917D02*
X254000D01*
X226500Y186500D02*
X228969Y184031D01*
X226500Y186500D02*
Y191500D01*
X240083Y205083D01*
X254000D01*
X238500Y178500D02*
Y183121D01*
X236156Y184000D02*
X237621D01*
X237000Y177000D02*
X238500Y178500D01*
X237621Y184000D02*
X238500Y183121D01*
X718000Y557000D02*
X723000Y552000D01*
Y500500D02*
Y552000D01*
X703000Y557000D02*
X718000D01*
X703000Y480500D02*
X723000Y500500D01*
X702500Y546500D02*
X703000Y547000D01*
X685500Y546500D02*
X702500D01*
X675500Y537000D02*
X703000D01*
X674500Y536000D02*
X675500Y537000D01*
X653000Y527000D02*
X703000D01*
X681000Y455000D02*
X686500Y449500D01*
Y363000D02*
Y449500D01*
X674000Y453500D02*
X680000Y447500D01*
Y363000D02*
Y447500D01*
X639500Y490500D02*
X703000D01*
X635000Y470500D02*
X703000D01*
X635000Y460500D02*
X703000D01*
X568327Y525000D02*
X651000D01*
X653000Y527000D01*
X683500Y253389D02*
Y344000D01*
X625500Y195389D02*
X683500Y253389D01*
X684750Y347250D02*
X687000Y345000D01*
X681000Y347000D02*
X681250Y347250D01*
X684750D01*
X687000Y249000D02*
Y345000D01*
X628500Y190500D02*
X687000Y249000D01*
X625500Y190500D02*
Y195389D01*
X617000Y123500D02*
X629500Y136000D01*
Y146000D01*
X608709Y144209D02*
X620553Y156053D01*
X600449Y144209D02*
X608709D01*
X600449Y139209D02*
X607709D01*
X622250Y153750D01*
X568500Y282000D02*
X573000Y277500D01*
Y269000D02*
Y277500D01*
X600449Y124209D02*
X601158Y123500D01*
X617000D01*
X601158Y158500D02*
X614500D01*
X600449Y159209D02*
X601158Y158500D01*
X568500Y266500D02*
Y275000D01*
X564500Y279000D02*
X568500Y275000D01*
X568327Y500000D02*
X576000D01*
X568327Y505000D02*
X577000D01*
X510500Y134500D02*
Y162500D01*
Y134500D02*
X520791Y124209D01*
X531551D01*
X508000Y170500D02*
X508500D01*
X514664Y164336D01*
Y137164D02*
X522620Y129209D01*
X531551D01*
X514664Y137164D02*
Y164336D01*
X627354Y348146D02*
X631500Y344000D01*
X606634Y348146D02*
X627354D01*
X629795Y350705D02*
X635500Y345000D01*
X606634Y350705D02*
X629795D01*
X483827Y479874D02*
X517803D01*
X563000Y355500D02*
X565236Y353264D01*
X578932Y353250D02*
X578946Y353264D01*
X583500D01*
X568554D02*
X568568Y353250D01*
X565236Y353264D02*
X568554D01*
X568568Y353250D02*
X578932D01*
X546220Y355500D02*
X563000D01*
X558500Y338000D02*
X566087Y345587D01*
X583500D01*
X546220Y338000D02*
X558500D01*
X264500Y317471D02*
Y317500D01*
Y317471D02*
X264970Y317000D01*
X629500Y465000D02*
X635000Y470500D01*
X537500Y465000D02*
X629500D01*
X465000Y465240D02*
X513760D01*
X514000Y465000D01*
X533000Y491000D02*
Y495500D01*
X518000Y479874D02*
X519514Y481388D01*
X523388D01*
X533000Y491000D01*
X517000Y470500D02*
X541500Y495000D01*
X518057Y450856D02*
X546673Y479472D01*
X541500Y495000D02*
X546673D01*
X517000Y453378D02*
Y470500D01*
X546673Y479472D02*
Y490000D01*
X609260Y434760D02*
X635000Y460500D01*
X464500Y434760D02*
X609260D01*
X540000Y505000D02*
X546673D01*
X539500Y504500D02*
X540000Y505000D01*
X525500Y527500D02*
Y542637D01*
X525137Y543000D02*
X525500Y542637D01*
X562000Y515000D02*
X568327D01*
X622500Y507500D02*
X639500Y490500D01*
X560500Y507500D02*
X622500D01*
X553000Y515000D02*
X560500Y507500D01*
X546673Y515000D02*
X553000D01*
X623000Y490000D02*
X632500Y480500D01*
X703000D01*
X568327Y490000D02*
X623000D01*
X516701Y451000D02*
X516845Y450856D01*
X517000Y450701D02*
Y450779D01*
X516923Y450856D02*
X517000Y450779D01*
X516845Y450856D02*
X516923D01*
X500500Y451000D02*
X516701D01*
X491740Y442240D02*
X500500Y451000D01*
X464500Y442240D02*
X491740D01*
X516845Y453455D02*
X516923D01*
X517000Y453299D02*
Y453378D01*
X516923Y453455D02*
X517000Y453378D01*
X516799Y453500D02*
X516845Y453455D01*
X512500Y453500D02*
X516799D01*
X508240Y457760D02*
X512500Y453500D01*
X465000Y457760D02*
X508240D01*
X493701Y500000D02*
X514500D01*
X521000D02*
X546673D01*
X480077Y486455D02*
X480156D01*
X493701Y500000D01*
X480000Y486299D02*
Y486378D01*
X480077Y486455D01*
X480000Y483622D02*
X480077Y483545D01*
X480156D01*
X483827Y479874D01*
X480000Y483622D02*
Y483701D01*
X403000Y487637D02*
X403599D01*
X407535Y483701D01*
X480000D01*
X518000Y513740D02*
X543605D01*
X544865Y515000D01*
X546673D01*
X544365Y519500D02*
X544865Y520000D01*
X546673D01*
X502500Y519500D02*
X544365D01*
X497260Y514260D02*
X497500Y514500D01*
X479364Y514260D02*
X497260D01*
X568327Y525000D02*
Y528673D01*
X530863Y543000D02*
X554000D01*
X568327Y528673D01*
X514240Y521740D02*
X517500Y525000D01*
X546673D01*
X479364Y521740D02*
X514240D01*
X518000Y489126D02*
Y506260D01*
X517760Y513500D02*
X518000Y513740D01*
X502000Y513500D02*
X517760D01*
X497500Y518000D02*
X502000Y513500D01*
X472000Y518000D02*
X497500D01*
X568327Y490000D02*
Y495000D01*
X546673Y505000D02*
X548248D01*
X558248Y495000D01*
X568327D01*
Y515000D02*
Y520000D01*
X546673Y525000D02*
X568327D01*
X455000Y518000D02*
X472000D01*
X403000Y493363D02*
X430363D01*
X455000Y518000D01*
X402863Y487500D02*
X403000Y487637D01*
X385500Y487500D02*
X402863D01*
X361347Y511654D02*
X385500Y487500D01*
X327000Y511654D02*
X361347D01*
X402000Y518500D02*
X405240Y521740D01*
X327153Y518500D02*
X402000D01*
X326105Y517452D02*
X327153Y518500D01*
X405240Y521740D02*
X479364D01*
X233500Y517000D02*
X296548D01*
X297000Y517452D01*
X235569Y515000D02*
X236232Y514336D01*
Y468728D02*
Y514336D01*
X232913Y515000D02*
X232913Y515000D01*
X235569D01*
X297000Y517452D02*
X326105D01*
X309417Y479417D02*
X327000Y497000D01*
Y511654D01*
X297000Y479417D02*
X309417D01*
X297000Y482583D02*
Y510548D01*
X239500Y497500D02*
X257583Y479417D01*
X297000D01*
X231028Y520500D02*
X248000D01*
X227656Y517128D02*
X231028Y520500D01*
X252500Y514500D02*
X256452Y510548D01*
X297000D01*
X233000Y508000D02*
Y513000D01*
X231000Y506000D02*
X233000Y508000D01*
X236004Y468500D02*
X236232Y468728D01*
X223996Y468500D02*
Y510925D01*
X265500Y269882D02*
Y272441D01*
Y267323D02*
Y269882D01*
D110*
X552709Y139209D02*
X553000Y139500D01*
X531551Y139209D02*
X552709D01*
X531551Y134209D02*
X552209D01*
X553000Y135000D01*
X276500Y175024D02*
X395532D01*
X273000Y178524D02*
X276500Y175024D01*
X273000Y178524D02*
Y196433D01*
X400567Y180059D02*
X497500D01*
X395532Y175024D02*
X400567Y180059D01*
X530370Y179209D02*
X531551D01*
X497500Y180059D02*
X529520D01*
X530370Y179209D01*
X497500Y180059D02*
Y192500D01*
X529500Y224500D01*
X559441Y224939D02*
Y225000D01*
X529500Y224500D02*
X559002D01*
X559441Y224939D01*
Y240941D02*
X577500Y259000D01*
X559441Y225000D02*
Y240941D01*
X577500Y259000D02*
Y299000D01*
X665500Y358000D02*
X703000D01*
X662000Y354500D02*
X665500Y358000D01*
X582500Y135000D02*
X590500Y143000D01*
X553000Y135000D02*
X582500D01*
X553000Y139500D02*
X581186D01*
X531417Y174075D02*
X531551Y174209D01*
X497500Y173941D02*
X497634Y174075D01*
X531417D01*
X471854Y160091D02*
X486008Y145937D01*
X449000Y160091D02*
X471854D01*
X486008Y145937D02*
X486500D01*
Y163736D02*
X496705Y173941D01*
X486500Y145937D02*
Y163736D01*
X496705Y173941D02*
X497500D01*
X662000Y349500D02*
Y354500D01*
X660500Y348000D02*
X662000Y349500D01*
X666500Y351000D02*
X689500D01*
X692500Y348000D02*
X703000D01*
X689500Y351000D02*
X692500Y348000D01*
D111*
X241982Y184000D02*
X248000D01*
D112*
X281127Y318873D02*
X282775D01*
X283745Y317903D01*
X504500Y135000D02*
X520291Y119209D01*
X531551D01*
X504500Y135000D02*
Y166500D01*
X606634Y337910D02*
X637090D01*
X605000D02*
X606634D01*
X637090D02*
X639500Y335500D01*
X606634Y345587D02*
X625413D01*
X627500Y343500D01*
X549322Y115109D02*
Y116884D01*
X548500Y114287D02*
X549322Y115109D01*
X550278Y117841D02*
Y117841D01*
X562938Y130500D01*
X549322Y116884D02*
X550278Y117841D01*
X617500Y190500D02*
X639500Y212500D01*
Y304000D01*
X562938Y130500D02*
X563000D01*
X289500Y312500D02*
X292000Y315000D01*
X297000Y312500D02*
X303000D01*
X287000D02*
X289500D01*
X265500Y275000D02*
X265693D01*
X265727Y275034D02*
Y277227D01*
X265693Y275000D02*
X265727Y275034D01*
Y277227D02*
X285500Y297000D01*
X280000Y306500D02*
X297000Y289500D01*
Y285583D02*
Y289500D01*
X291925Y366575D02*
X293000Y365500D01*
X291925Y366575D02*
Y386500D01*
D113*
X321795Y315280D02*
X322000Y315075D01*
D114*
X715000Y57500D02*
D03*
X94500D02*
D03*
X715000Y577500D02*
D03*
X94500D02*
D03*
D115*
X703000Y460500D02*
D03*
Y527000D02*
D03*
Y134000D02*
D03*
X703000Y338000D02*
D03*
D116*
X703000Y470500D02*
D03*
Y480500D02*
D03*
Y490500D02*
D03*
Y537000D02*
D03*
Y547000D02*
D03*
Y557000D02*
D03*
Y164000D02*
D03*
Y154000D02*
D03*
Y144000D02*
D03*
X703000Y348000D02*
D03*
Y358000D02*
D03*
Y368000D02*
D03*
D117*
X107000Y329500D02*
D03*
D118*
X106000Y305000D02*
D03*
D119*
X192500Y276000D02*
D03*
X143661Y311839D02*
D03*
D120*
X549780Y143500D02*
D03*
X549500Y130500D02*
D03*
X554583Y159327D02*
D03*
X565606D02*
D03*
X560094Y153815D02*
D03*
Y148303D02*
D03*
Y159327D02*
D03*
X554583Y148303D02*
D03*
X565500D02*
D03*
X554583Y153815D02*
D03*
X565606D02*
D03*
X318500Y198000D02*
D03*
X319000Y170500D02*
D03*
X230000Y179500D02*
D03*
X248000Y184000D02*
D03*
X577500Y299000D02*
D03*
X599000Y333500D02*
D03*
X572500Y341000D02*
D03*
X571000Y355500D02*
D03*
X281000Y319000D02*
D03*
X674500Y536000D02*
D03*
X685500Y546500D02*
D03*
X681000Y455000D02*
D03*
X674000Y453500D02*
D03*
X686500Y363000D02*
D03*
X680000D02*
D03*
X683500Y344000D02*
D03*
X681000Y347000D02*
D03*
X625500Y190500D02*
D03*
X628500D02*
D03*
X629500Y146000D02*
D03*
X620553Y156053D02*
D03*
X622250Y153750D02*
D03*
X608000Y217500D02*
D03*
X584000Y169500D02*
D03*
X581186Y139500D02*
D03*
X590500Y143000D02*
D03*
X504500Y166500D02*
D03*
X568500Y282000D02*
D03*
X627500Y343500D02*
D03*
X617500Y190500D02*
D03*
X589000Y164500D02*
D03*
X639500Y304000D02*
D03*
Y335500D02*
D03*
X563000Y130500D02*
D03*
X591000Y162000D02*
D03*
X572841Y269158D02*
D03*
X614500Y158500D02*
D03*
X568500Y266500D02*
D03*
X564500Y279000D02*
D03*
X577911Y355823D02*
D03*
X577500Y351000D02*
D03*
X577911Y348175D02*
D03*
X576000Y500000D02*
D03*
X577000Y505000D02*
D03*
X510500Y162500D02*
D03*
X508000Y170500D02*
D03*
X618500Y290000D02*
D03*
X635500Y345000D02*
D03*
X631500Y344000D02*
D03*
X619500Y297500D02*
D03*
X509500Y475000D02*
D03*
X523890Y366390D02*
D03*
X574500Y82500D02*
D03*
X567000Y83500D02*
D03*
X666500Y351000D02*
D03*
X660500Y348000D02*
D03*
X578000Y343013D02*
D03*
X327500Y339617D02*
D03*
X318000Y390000D02*
D03*
X267000Y339000D02*
D03*
X274000Y306000D02*
D03*
X292000Y315000D02*
D03*
X297000Y312500D02*
D03*
X285500Y297000D02*
D03*
X280000Y306500D02*
D03*
X293000Y365500D02*
D03*
X537500Y465000D02*
D03*
X514000D02*
D03*
X533000Y495500D02*
D03*
X539500Y504500D02*
D03*
X525500Y527500D02*
D03*
X562000Y515000D02*
D03*
X514500Y500000D02*
D03*
X521000D02*
D03*
X502500Y519500D02*
D03*
X497500Y514500D02*
D03*
X239500Y497500D02*
D03*
X248000Y520500D02*
D03*
X252500Y514500D02*
D03*
X231000Y506000D02*
D03*
X216000Y504000D02*
D03*
M02*
