M48
;Layer_Color=9474304
;FILE_FORMAT=4:4
METRIC,LZ
;TYPE=PLATED
T01F00S00C0.7112
T02F00S00C0.9000
T03F00S00C1.0000
T04F00S00C1.1000
%
T01
X0121666Y0047371
X0125603Y0044323
X01402005Y00515545
X0139827Y0060579
X0144526Y0058674
X0133096Y0061087
X0132842Y0063119
Y0064516
X0138557Y0070866
X0140081Y0069596
X0115316Y0078867
X0110998Y0048006
X0111887Y0046101
X0083312Y0068834
X0084582Y0070993
X0080137Y0079121
X0063246Y0072263
X0061087Y0065151
X0064135Y0085598
X0063373Y0089027
X0067945Y0090678
X0071501Y0090551
X0071247Y009271
X0066294Y0094361
X006985Y0085725
X007493Y0089789
X0077993Y0091074
X0078359Y009652
X0076581Y0082296
X0087757Y008382
X0094107Y0081788
X009398Y0092837
X0095377Y0093726
X0089916Y0092964
X0085852Y0091821
X0088863Y0098335
X0088265Y0100838
X0092075Y0107315
X008382Y0109347
X00983551Y01020381
X0100076Y01016
X0099695Y0099822
X01016Y0100584
X0102489Y0098425
X0104013Y0099441
X0105029Y0100711
X0107315Y0099187
X0110109Y0100711
X01117675Y0103124
X0099187Y0096774
X0123698Y0086614
X0139573Y0084582
T02
X0104394Y0085892
Y0090892
T03
X0124206Y0052324
X0126746
X0129286
T04
X0055245Y0064897
Y0067437
Y0069977
Y0072517
X007493Y0116967
X007747
X008001
X008255
X009144
X009398
X009652
X009906
M30
