G04*
G04 #@! TF.GenerationSoftware,Altium Limited,Altium Designer,24.9.1 (31)*
G04*
G04 Layer_Color=16711935*
%FSLAX44Y44*%
%MOMM*%
G71*
G04*
G04 #@! TF.SameCoordinates,0288D2A1-9ADD-411E-8E8B-FA1067C2B916*
G04*
G04*
G04 #@! TF.FilePolarity,Negative*
G04*
G01*
G75*
%ADD121C,1.8532*%
%ADD122R,1.8532X1.8532*%
%ADD123R,3.2032X5.2032*%
%ADD124R,5.2032X3.2032*%
%ADD125C,1.5500*%
%ADD126R,1.5500X1.5500*%
%ADD127C,1.5532*%
%ADD128R,1.8532X1.8532*%
%ADD129C,1.4732*%
%ADD130C,1.0922*%
D121*
X749300Y1169670D02*
D03*
X774700D02*
D03*
X800100D02*
D03*
X914400D02*
D03*
X939800D02*
D03*
X965200D02*
D03*
X552450Y725170D02*
D03*
Y699770D02*
D03*
Y674370D02*
D03*
D122*
X825500Y1169670D02*
D03*
X990600D02*
D03*
D123*
X510540Y875030D02*
D03*
D124*
X513080Y937260D02*
D03*
D125*
X1242060Y523240D02*
D03*
X1267460D02*
D03*
D126*
X1292860D02*
D03*
D127*
X1043940Y858920D02*
D03*
Y908920D02*
D03*
D128*
X552450Y648970D02*
D03*
D129*
X953770Y937260D02*
D03*
X983551Y1020381D02*
D03*
X1000760Y1016000D02*
D03*
X1016000Y1005840D02*
D03*
X996950Y998220D02*
D03*
X991870Y967740D02*
D03*
X662940Y943610D02*
D03*
X633730Y890270D02*
D03*
X641350Y855980D02*
D03*
X765810Y822960D02*
D03*
X698500Y857250D02*
D03*
X712470Y927100D02*
D03*
X715010Y905510D02*
D03*
X749300Y897890D02*
D03*
X679450Y906780D02*
D03*
X1328420Y645160D02*
D03*
X1385570Y708660D02*
D03*
X1330960Y610870D02*
D03*
X1400810Y695960D02*
D03*
X1328420Y631190D02*
D03*
X1398270Y605790D02*
D03*
X877570Y838200D02*
D03*
X920750Y1073150D02*
D03*
X939800Y928370D02*
D03*
X1101090Y1007110D02*
D03*
X1236980Y866140D02*
D03*
X1445260Y586740D02*
D03*
X1050290Y1007110D02*
D03*
X779930Y910740D02*
D03*
X838200Y1093470D02*
D03*
X783590Y965200D02*
D03*
X858520Y918210D02*
D03*
X899160Y929640D02*
D03*
X801370Y791210D02*
D03*
X833120Y688340D02*
D03*
X845820Y709930D02*
D03*
X941070Y817880D02*
D03*
X1216660Y473710D02*
D03*
X1117675Y1031240D02*
D03*
X1109980Y480060D02*
D03*
X1073150Y991870D02*
D03*
X1153160Y788670D02*
D03*
X1402005Y515545D02*
D03*
X632460Y722630D02*
D03*
X1395730Y845820D02*
D03*
X610870Y651510D02*
D03*
X1256030Y443230D02*
D03*
X1118870Y461010D02*
D03*
X1024890Y984250D02*
D03*
X1040130Y994410D02*
D03*
D130*
X888630Y983350D02*
D03*
X882650Y1008380D02*
D03*
M02*
