G04*
G04 #@! TF.GenerationSoftware,Altium Limited,Altium Designer,24.9.1 (31)*
G04*
G04 Layer_Color=65535*
%FSLAX44Y44*%
%MOMM*%
G71*
G04*
G04 #@! TF.SameCoordinates,0288D2A1-9ADD-411E-8E8B-FA1067C2B916*
G04*
G04*
G04 #@! TF.FilePolarity,Positive*
G04*
G01*
G75*
%ADD10C,0.2000*%
%ADD11C,0.2500*%
%ADD12C,0.6000*%
%ADD13C,0.1000*%
%ADD14C,0.1270*%
%ADD15C,0.2540*%
D10*
X846500Y1169670D02*
G03*
X846500Y1169670I-1000J0D01*
G01*
X1011600D02*
G03*
X1011600Y1169670I-1000J0D01*
G01*
X1082940Y883920D02*
G03*
X1082940Y883920I-39000J0D01*
G01*
X553450Y628970D02*
G03*
X553450Y628970I-1000J0D01*
G01*
X657640Y859770D02*
G03*
X657640Y860770I0J500D01*
G01*
D02*
G03*
X657640Y859770I0J-500D01*
G01*
D02*
G03*
X657640Y860770I0J500D01*
G01*
X1177370Y754510D02*
Y821660D01*
Y565660D02*
Y572910D01*
X1333270Y565660D02*
X1358370D01*
X1177370D02*
X1202470D01*
X1358370Y754510D02*
Y821660D01*
Y565660D02*
Y572910D01*
X1177370Y821660D02*
X1358370D01*
X1307060Y509540D02*
Y536940D01*
X1227860D02*
X1307060D01*
X1227860Y509540D02*
Y536940D01*
Y509540D02*
X1307060D01*
X875067Y1026196D02*
Y1038823D01*
X887694Y1026196D02*
Y1038823D01*
X896870Y1041100D02*
X911620D01*
X899670Y850030D02*
Y900030D01*
X931670Y850030D02*
Y900030D01*
X899670D02*
X931670D01*
X899670Y850030D02*
X931670D01*
X981090Y846920D02*
Y857420D01*
X967090Y846920D02*
Y857420D01*
X979790Y877460D02*
X981790D01*
X979790Y895460D02*
X981790D01*
X991790Y877460D02*
X993790D01*
X991790Y895460D02*
X993790D01*
X979790Y877460D02*
Y895460D01*
X993790Y877460D02*
Y895460D01*
X1161460Y1012830D02*
Y1036950D01*
X1182960Y1012830D02*
Y1036950D01*
X1141840Y946250D02*
Y958750D01*
X1123840Y946250D02*
Y958750D01*
X1017280Y1083300D02*
X1050280D01*
X1017280Y1113800D02*
X1050280D01*
X1017280Y1028690D02*
X1050280D01*
X1017280Y1059190D02*
X1050280D01*
X1136280Y709790D02*
Y712290D01*
X1121780Y709790D02*
Y712290D01*
X1325290Y511180D02*
Y535300D01*
X1346790Y511180D02*
Y535300D01*
X1363390Y511180D02*
Y535300D01*
X1384890Y511180D02*
Y535300D01*
X1198250Y857840D02*
X1222370D01*
X1198250Y836340D02*
X1222370D01*
X1118280Y807090D02*
Y831210D01*
X1139780Y807090D02*
Y831210D01*
X1122050Y997630D02*
X1146170D01*
X1122050Y1019130D02*
X1146170D01*
X1289530Y863320D02*
X1349530D01*
X1289530Y828320D02*
Y863320D01*
X1349530Y828320D02*
Y863320D01*
X1289530Y828320D02*
X1349530D01*
X750760Y974860D02*
Y975860D01*
X742760Y974860D02*
Y975860D01*
X773409Y999841D02*
X806471D01*
X773409Y976279D02*
X806471D01*
X761430Y926760D02*
Y929460D01*
Y945060D02*
Y947760D01*
X785430Y926760D02*
Y929460D01*
Y945060D02*
Y947760D01*
X641990Y657180D02*
X666110D01*
X641990Y635680D02*
X666110D01*
X667700Y689460D02*
X675000D01*
Y695960D01*
X645800Y689460D02*
X653100D01*
X645800D02*
Y695960D01*
X623450Y863990D02*
Y880990D01*
X608450Y863990D02*
Y880990D01*
X606334Y830680D02*
X607786D01*
X606334Y843180D02*
X607786D01*
X644878Y754970D02*
X668998D01*
X644878Y733470D02*
X668998D01*
X657667Y819330D02*
X682729D01*
X657667Y841830D02*
X682729D01*
X719920Y869950D02*
X730420D01*
X740860Y668320D02*
Y769320D01*
X773860Y668320D02*
Y769320D01*
X740860D02*
X773860D01*
X740860Y668320D02*
X773860D01*
X862588Y799358D02*
Y816082D01*
X877312Y799358D02*
Y816082D01*
X964550Y818980D02*
Y829480D01*
X978550Y818980D02*
Y829480D01*
X1054380Y706600D02*
Y766600D01*
Y706600D02*
X1089380D01*
X1054380Y766600D02*
X1089380D01*
Y706600D02*
Y766600D01*
X747040Y847120D02*
Y885161D01*
X782040Y847120D02*
Y885161D01*
X828101Y855121D02*
Y872079D01*
X800039Y855121D02*
Y872079D01*
X864113Y872748D02*
Y887472D01*
X850387Y872748D02*
Y887472D01*
X862980Y844380D02*
Y854880D01*
X848980Y844380D02*
Y854880D01*
X606889Y903381D02*
Y931502D01*
X625011Y903381D02*
Y931502D01*
X820350Y919480D02*
X843350D01*
D11*
X1167870Y746260D02*
G03*
X1167870Y746260I-1250J0D01*
G01*
X1313210Y523240D02*
G03*
X1313210Y523240I-1250J0D01*
G01*
X890670Y902330D02*
G03*
X890670Y902330I-1250J0D01*
G01*
X1258330Y845820D02*
G03*
X1258330Y845820I-1250J0D01*
G01*
X731110Y771770D02*
G03*
X731110Y771770I-1250J0D01*
G01*
X1073130Y799050D02*
G03*
X1073130Y799050I-1250J0D01*
G01*
D12*
X912670Y890030D02*
G03*
X912670Y890030I-3000J0D01*
G01*
X753860Y759320D02*
G03*
X753860Y759320I-3000J0D01*
G01*
D13*
X992290Y901210D02*
G03*
X992290Y901210I-500J0D01*
G01*
X785930Y951760D02*
G03*
X785930Y951760I-500J0D01*
G01*
X630520Y1038030D02*
X705520D01*
Y966030D02*
Y1038030D01*
X630520Y966030D02*
X705520D01*
X630520D02*
Y1038030D01*
D14*
X840500Y1138670D02*
Y1200670D01*
X734300Y1138670D02*
X840500D01*
X734300D02*
Y1200670D01*
X840500D01*
X1005600Y1138670D02*
Y1200670D01*
X899400Y1138670D02*
X1005600D01*
X899400D02*
Y1200670D01*
X1005600D01*
X521450Y633970D02*
X583450D01*
X521450D02*
Y740170D01*
X583450D01*
Y633970D02*
Y740170D01*
X477520Y983740D02*
Y977392D01*
X480694D01*
X481752Y978450D01*
Y982682D01*
X480694Y983740D01*
X477520D01*
X488100Y982682D02*
X487042Y983740D01*
X484926D01*
X483868Y982682D01*
Y978450D01*
X484926Y977392D01*
X487042D01*
X488100Y978450D01*
X490216Y977392D02*
X492332D01*
X491274D01*
Y983740D01*
X490216Y982682D01*
X685378Y879474D02*
Y874184D01*
X686436Y873126D01*
X688552D01*
X689610Y874184D01*
Y879474D01*
X691726Y873126D02*
X693842D01*
X692784D01*
Y879474D01*
X691726Y878416D01*
X721360Y786890D02*
Y781600D01*
X722418Y780542D01*
X724534D01*
X725592Y781600D01*
Y786890D01*
X730882Y780542D02*
Y786890D01*
X727708Y783716D01*
X731940D01*
X788460Y941704D02*
Y936414D01*
X789518Y935356D01*
X791634D01*
X792692Y936414D01*
Y941704D01*
X794808Y940646D02*
X795866Y941704D01*
X797982D01*
X799040Y940646D01*
Y939588D01*
X797982Y938530D01*
X796924D01*
X797982D01*
X799040Y937472D01*
Y936414D01*
X797982Y935356D01*
X795866D01*
X794808Y936414D01*
X887520Y913764D02*
Y908474D01*
X888578Y907416D01*
X890694D01*
X891752Y908474D01*
Y913764D01*
X898100Y907416D02*
X893868D01*
X898100Y911648D01*
Y912706D01*
X897042Y913764D01*
X894926D01*
X893868Y912706D01*
X519938Y755648D02*
X524170D01*
X522054D01*
Y749300D01*
X526286Y755648D02*
Y749300D01*
X529460D01*
X530518Y750358D01*
Y751416D01*
X529460Y752474D01*
X526286D01*
X529460D01*
X530518Y753532D01*
Y754590D01*
X529460Y755648D01*
X526286D01*
X536866Y749300D02*
X532634D01*
X536866Y753532D01*
Y754590D01*
X535808Y755648D01*
X533692D01*
X532634Y754590D01*
X732790Y1216150D02*
X737022D01*
X734906D01*
Y1209802D01*
X739138Y1216150D02*
Y1209802D01*
X742312D01*
X743370Y1210860D01*
Y1211918D01*
X742312Y1212976D01*
X739138D01*
X742312D01*
X743370Y1214034D01*
Y1215092D01*
X742312Y1216150D01*
X739138D01*
X745486Y1209802D02*
X747602D01*
X746544D01*
Y1216150D01*
X745486Y1215092D01*
X1058586Y813264D02*
X1057528Y814322D01*
X1055412D01*
X1054354Y813264D01*
Y812206D01*
X1055412Y811148D01*
X1057528D01*
X1058586Y810090D01*
Y809032D01*
X1057528Y807974D01*
X1055412D01*
X1054354Y809032D01*
X1060702Y814322D02*
Y807974D01*
X1062818Y810090D01*
X1064934Y807974D01*
Y814322D01*
X1071282Y807974D02*
X1067050D01*
X1071282Y812206D01*
Y813264D01*
X1070224Y814322D01*
X1068108D01*
X1067050Y813264D01*
X1260008Y876256D02*
X1258950Y877314D01*
X1256834D01*
X1255776Y876256D01*
Y875198D01*
X1256834Y874140D01*
X1258950D01*
X1260008Y873082D01*
Y872024D01*
X1258950Y870966D01*
X1256834D01*
X1255776Y872024D01*
X1262124Y877314D02*
Y870966D01*
X1264240Y873082D01*
X1266356Y870966D01*
Y877314D01*
X1268472Y870966D02*
X1270588D01*
X1269530D01*
Y877314D01*
X1268472Y876256D01*
X834075Y992506D02*
Y998854D01*
X837249D01*
X838307Y997796D01*
Y995680D01*
X837249Y994622D01*
X834075D01*
X836191D02*
X838307Y992506D01*
X840423D02*
X842539D01*
X841481D01*
Y998854D01*
X840423Y997796D01*
X849945Y998854D02*
X845713D01*
Y995680D01*
X847829Y996738D01*
X848887D01*
X849945Y995680D01*
Y993564D01*
X848887Y992506D01*
X846771D01*
X845713Y993564D01*
X1161796Y1045210D02*
Y1051558D01*
X1164970D01*
X1166028Y1050500D01*
Y1048384D01*
X1164970Y1047326D01*
X1161796D01*
X1163912D02*
X1166028Y1045210D01*
X1168144D02*
X1170260D01*
X1169202D01*
Y1051558D01*
X1168144Y1050500D01*
X1173434D02*
X1174492Y1051558D01*
X1176608D01*
X1177666Y1050500D01*
Y1049442D01*
X1176608Y1048384D01*
X1175550D01*
X1176608D01*
X1177666Y1047326D01*
Y1046268D01*
X1176608Y1045210D01*
X1174492D01*
X1173434Y1046268D01*
X1154115Y992506D02*
Y998854D01*
X1157289D01*
X1158347Y997796D01*
Y995680D01*
X1157289Y994622D01*
X1154115D01*
X1156231D02*
X1158347Y992506D01*
X1160463D02*
X1162579D01*
X1161521D01*
Y998854D01*
X1160463Y997796D01*
X1165753Y998854D02*
X1169985D01*
Y997796D01*
X1165753Y993564D01*
Y992506D01*
X1325036Y498476D02*
Y504824D01*
X1328210D01*
X1329268Y503766D01*
Y501650D01*
X1328210Y500592D01*
X1325036D01*
X1327152D02*
X1329268Y498476D01*
X1335616D02*
X1331384D01*
X1335616Y502708D01*
Y503766D01*
X1334558Y504824D01*
X1332442D01*
X1331384Y503766D01*
X1337732D02*
X1338790Y504824D01*
X1340906D01*
X1341964Y503766D01*
Y502708D01*
X1340906Y501650D01*
X1339848D01*
X1340906D01*
X1341964Y500592D01*
Y499534D01*
X1340906Y498476D01*
X1338790D01*
X1337732Y499534D01*
X1364406Y498476D02*
Y504824D01*
X1367580D01*
X1368638Y503766D01*
Y501650D01*
X1367580Y500592D01*
X1364406D01*
X1366522D02*
X1368638Y498476D01*
X1374986D02*
X1370754D01*
X1374986Y502708D01*
Y503766D01*
X1373928Y504824D01*
X1371812D01*
X1370754Y503766D01*
X1381334Y498476D02*
X1377102D01*
X1381334Y502708D01*
Y503766D01*
X1380276Y504824D01*
X1378160D01*
X1377102Y503766D01*
X1097494Y808356D02*
Y814704D01*
X1100668D01*
X1101726Y813646D01*
Y811530D01*
X1100668Y810472D01*
X1097494D01*
X1099610D02*
X1101726Y808356D01*
X1108074D02*
X1103842D01*
X1108074Y812588D01*
Y813646D01*
X1107016Y814704D01*
X1104900D01*
X1103842Y813646D01*
X1110190Y808356D02*
X1112306D01*
X1111248D01*
Y814704D01*
X1110190Y813646D01*
X1197610Y865124D02*
Y871472D01*
X1200784D01*
X1201842Y870414D01*
Y868298D01*
X1200784Y867240D01*
X1197610D01*
X1199726D02*
X1201842Y865124D01*
X1208190D02*
X1203958D01*
X1208190Y869356D01*
Y870414D01*
X1207132Y871472D01*
X1205016D01*
X1203958Y870414D01*
X1210306D02*
X1211364Y871472D01*
X1213480D01*
X1214538Y870414D01*
Y866182D01*
X1213480Y865124D01*
X1211364D01*
X1210306Y866182D01*
Y870414D01*
X995680Y1124204D02*
Y1130552D01*
X998854D01*
X999912Y1129494D01*
Y1127378D01*
X998854Y1126320D01*
X995680D01*
X997796D02*
X999912Y1124204D01*
X1002028D02*
X1004144D01*
X1003086D01*
Y1130552D01*
X1002028Y1129494D01*
X1011550Y1130552D02*
X1009434Y1129494D01*
X1007318Y1127378D01*
Y1125262D01*
X1008376Y1124204D01*
X1010492D01*
X1011550Y1125262D01*
Y1126320D01*
X1010492Y1127378D01*
X1007318D01*
X995680Y1069594D02*
Y1075942D01*
X998854D01*
X999912Y1074884D01*
Y1072768D01*
X998854Y1071710D01*
X995680D01*
X997796D02*
X999912Y1069594D01*
X1002028D02*
X1004144D01*
X1003086D01*
Y1075942D01*
X1002028Y1074884D01*
X1010492Y1069594D02*
Y1075942D01*
X1007318Y1072768D01*
X1011550D01*
X637286Y574548D02*
Y580896D01*
X640460D01*
X641518Y579838D01*
Y577722D01*
X640460Y576664D01*
X637286D01*
X639402D02*
X641518Y574548D01*
X643634D02*
X645750D01*
X644692D01*
Y580896D01*
X643634Y579838D01*
X653156Y574548D02*
X648924D01*
X653156Y578780D01*
Y579838D01*
X652098Y580896D01*
X649982D01*
X648924Y579838D01*
X650983Y596266D02*
Y602614D01*
X654157D01*
X655215Y601556D01*
Y599440D01*
X654157Y598382D01*
X650983D01*
X653099D02*
X655215Y596266D01*
X657331D02*
X659447D01*
X658389D01*
Y602614D01*
X657331Y601556D01*
X662621Y596266D02*
X664737D01*
X663679D01*
Y602614D01*
X662621Y601556D01*
X736285Y934086D02*
Y940434D01*
X739459D01*
X740517Y939376D01*
Y937260D01*
X739459Y936202D01*
X736285D01*
X738401D02*
X740517Y934086D01*
X742633D02*
X744749D01*
X743691D01*
Y940434D01*
X742633Y939376D01*
X747923D02*
X748981Y940434D01*
X751097D01*
X752155Y939376D01*
Y935144D01*
X751097Y934086D01*
X748981D01*
X747923Y935144D01*
Y939376D01*
X759250Y965836D02*
Y972184D01*
X762424D01*
X763482Y971126D01*
Y969010D01*
X762424Y967952D01*
X759250D01*
X761366D02*
X763482Y965836D01*
X765598Y966894D02*
X766656Y965836D01*
X768772D01*
X769830Y966894D01*
Y971126D01*
X768772Y972184D01*
X766656D01*
X765598Y971126D01*
Y970068D01*
X766656Y969010D01*
X769830D01*
X984040Y823596D02*
Y829944D01*
X987214D01*
X988272Y828886D01*
Y826770D01*
X987214Y825712D01*
X984040D01*
X986156D02*
X988272Y823596D01*
X990388Y828886D02*
X991446Y829944D01*
X993562D01*
X994620Y828886D01*
Y827828D01*
X993562Y826770D01*
X994620Y825712D01*
Y824654D01*
X993562Y823596D01*
X991446D01*
X990388Y824654D01*
Y825712D01*
X991446Y826770D01*
X990388Y827828D01*
Y828886D01*
X991446Y826770D02*
X993562D01*
X848150Y810896D02*
Y817244D01*
X851324D01*
X852382Y816186D01*
Y814070D01*
X851324Y813012D01*
X848150D01*
X850266D02*
X852382Y810896D01*
X854498Y817244D02*
X858730D01*
Y816186D01*
X854498Y811954D01*
Y810896D01*
X575100Y852806D02*
Y859154D01*
X578274D01*
X579332Y858096D01*
Y855980D01*
X578274Y854922D01*
X575100D01*
X577216D02*
X579332Y852806D01*
X585680Y859154D02*
X583564Y858096D01*
X581448Y855980D01*
Y853864D01*
X582506Y852806D01*
X584622D01*
X585680Y853864D01*
Y854922D01*
X584622Y855980D01*
X581448D01*
X961180Y866776D02*
Y873124D01*
X964354D01*
X965412Y872066D01*
Y869950D01*
X964354Y868892D01*
X961180D01*
X963296D02*
X965412Y866776D01*
X971760Y873124D02*
X967528D01*
Y869950D01*
X969644Y871008D01*
X970702D01*
X971760Y869950D01*
Y867834D01*
X970702Y866776D01*
X968586D01*
X967528Y867834D01*
X620820Y809626D02*
Y815974D01*
X623994D01*
X625052Y814916D01*
Y812800D01*
X623994Y811742D01*
X620820D01*
X622936D02*
X625052Y809626D01*
X630342D02*
Y815974D01*
X627168Y812800D01*
X631400D01*
X837990Y860426D02*
Y866774D01*
X841164D01*
X842222Y865716D01*
Y863600D01*
X841164Y862542D01*
X837990D01*
X840106D02*
X842222Y860426D01*
X844338Y865716D02*
X845396Y866774D01*
X847512D01*
X848570Y865716D01*
Y864658D01*
X847512Y863600D01*
X846454D01*
X847512D01*
X848570Y862542D01*
Y861484D01*
X847512Y860426D01*
X845396D01*
X844338Y861484D01*
X730040Y892176D02*
Y898524D01*
X733214D01*
X734272Y897466D01*
Y895350D01*
X733214Y894292D01*
X730040D01*
X732156D02*
X734272Y892176D01*
X740620D02*
X736388D01*
X740620Y896408D01*
Y897466D01*
X739562Y898524D01*
X737446D01*
X736388Y897466D01*
X851748Y893446D02*
Y899794D01*
X854922D01*
X855980Y898736D01*
Y896620D01*
X854922Y895562D01*
X851748D01*
X853864D02*
X855980Y893446D01*
X858096D02*
X860212D01*
X859154D01*
Y899794D01*
X858096Y898736D01*
X647868Y723688D02*
Y727920D01*
X646810Y728978D01*
X644694D01*
X643636Y727920D01*
Y723688D01*
X644694Y722630D01*
X646810D01*
X645752Y724746D02*
X647868Y722630D01*
X646810D02*
X647868Y723688D01*
X649984Y722630D02*
X652100D01*
X651042D01*
Y728978D01*
X649984Y727920D01*
X897902Y1049656D02*
Y1056004D01*
X900018Y1053888D01*
X902134Y1056004D01*
Y1049656D01*
X905308D02*
X907424D01*
X908482Y1050714D01*
Y1052830D01*
X907424Y1053888D01*
X905308D01*
X904250Y1052830D01*
Y1050714D01*
X905308Y1049656D01*
X911656Y1054946D02*
Y1053888D01*
X910598D01*
X912714D01*
X911656D01*
Y1050714D01*
X912714Y1049656D01*
X916946D02*
X919062D01*
X920120Y1050714D01*
Y1052830D01*
X919062Y1053888D01*
X916946D01*
X915888Y1052830D01*
Y1050714D01*
X916946Y1049656D01*
X922236Y1053888D02*
Y1049656D01*
Y1051772D01*
X923294Y1052830D01*
X924352Y1053888D01*
X925410D01*
X934932Y1056004D02*
Y1049656D01*
X938106D01*
X939164Y1050714D01*
Y1054946D01*
X938106Y1056004D01*
X934932D01*
X941280Y1053888D02*
Y1049656D01*
Y1051772D01*
X942338Y1052830D01*
X943396Y1053888D01*
X944454D01*
X947628Y1049656D02*
X949744D01*
X948686D01*
Y1053888D01*
X947628D01*
X952918D02*
X955034Y1049656D01*
X957150Y1053888D01*
X962440Y1049656D02*
X960324D01*
X959266Y1050714D01*
Y1052830D01*
X960324Y1053888D01*
X962440D01*
X963498Y1052830D01*
Y1051772D01*
X959266D01*
X965614Y1053888D02*
Y1049656D01*
Y1051772D01*
X966672Y1052830D01*
X967730Y1053888D01*
X968788D01*
X971962Y1049656D02*
X974078D01*
X973020D01*
Y1056004D01*
X971962Y1054946D01*
X897890Y1216150D02*
X902122D01*
X900006D01*
Y1209802D01*
X904238Y1216150D02*
Y1209802D01*
X907412D01*
X908470Y1210860D01*
Y1211918D01*
X907412Y1212976D01*
X904238D01*
X907412D01*
X908470Y1214034D01*
Y1215092D01*
X907412Y1216150D01*
X904238D01*
X910586Y1215092D02*
X911644Y1216150D01*
X913760D01*
X914818Y1215092D01*
Y1214034D01*
X913760Y1212976D01*
X912702D01*
X913760D01*
X914818Y1211918D01*
Y1210860D01*
X913760Y1209802D01*
X911644D01*
X910586Y1210860D01*
X1165352Y830072D02*
Y836420D01*
X1167468Y834304D01*
X1169584Y836420D01*
Y830072D01*
X1171700Y836420D02*
Y830072D01*
X1174874D01*
X1175932Y831130D01*
Y835362D01*
X1174874Y836420D01*
X1171700D01*
X1178048Y830072D02*
X1180164D01*
X1179106D01*
Y836420D01*
X1178048Y835362D01*
X768604Y1014474D02*
Y1008126D01*
X772836D01*
X774952Y1013416D02*
X776010Y1014474D01*
X778126D01*
X779184Y1013416D01*
Y1012358D01*
X778126Y1011300D01*
X777068D01*
X778126D01*
X779184Y1010242D01*
Y1009184D01*
X778126Y1008126D01*
X776010D01*
X774952Y1009184D01*
X1005332Y936496D02*
Y930148D01*
X1009564D01*
X1015912D02*
X1011680D01*
X1015912Y934380D01*
Y935438D01*
X1014854Y936496D01*
X1012738D01*
X1011680Y935438D01*
X621284Y1061210D02*
Y1054862D01*
X625516D01*
X627632D02*
X629748D01*
X628690D01*
Y1061210D01*
X627632Y1060152D01*
X1231306Y551686D02*
X1229190D01*
X1230248D01*
Y546396D01*
X1229190Y545338D01*
X1228132D01*
X1227074Y546396D01*
X1233422Y545338D02*
X1235538D01*
X1234480D01*
Y551686D01*
X1233422Y550628D01*
X976208Y915034D02*
Y908686D01*
X979382D01*
X980440Y909744D01*
Y913976D01*
X979382Y915034D01*
X976208D01*
X982556Y908686D02*
X984672D01*
X983614D01*
Y915034D01*
X982556Y913976D01*
X813648Y948266D02*
X812590Y949324D01*
X810474D01*
X809416Y948266D01*
Y944034D01*
X810474Y942976D01*
X812590D01*
X813648Y944034D01*
X819996Y942976D02*
X815764D01*
X819996Y947208D01*
Y948266D01*
X818938Y949324D01*
X816822D01*
X815764Y948266D01*
X825286Y942976D02*
Y949324D01*
X822112Y946150D01*
X826344D01*
X882228Y936836D02*
X881170Y937894D01*
X879054D01*
X877996Y936836D01*
Y932604D01*
X879054Y931546D01*
X881170D01*
X882228Y932604D01*
X888576Y931546D02*
X884344D01*
X888576Y935778D01*
Y936836D01*
X887518Y937894D01*
X885402D01*
X884344Y936836D01*
X894924Y937894D02*
X890692D01*
Y934720D01*
X892808Y935778D01*
X893866D01*
X894924Y934720D01*
Y932604D01*
X893866Y931546D01*
X891750D01*
X890692Y932604D01*
X874608Y958426D02*
X873550Y959484D01*
X871434D01*
X870376Y958426D01*
Y954194D01*
X871434Y953136D01*
X873550D01*
X874608Y954194D01*
X880956Y953136D02*
X876724D01*
X880956Y957368D01*
Y958426D01*
X879898Y959484D01*
X877782D01*
X876724Y958426D01*
X883072D02*
X884130Y959484D01*
X886246D01*
X887304Y958426D01*
Y957368D01*
X886246Y956310D01*
X885188D01*
X886246D01*
X887304Y955252D01*
Y954194D01*
X886246Y953136D01*
X884130D01*
X883072Y954194D01*
X830158Y963506D02*
X829100Y964564D01*
X826984D01*
X825926Y963506D01*
Y959274D01*
X826984Y958216D01*
X829100D01*
X830158Y959274D01*
X836506Y958216D02*
X832274D01*
X836506Y962448D01*
Y963506D01*
X835448Y964564D01*
X833332D01*
X832274Y963506D01*
X842854Y958216D02*
X838622D01*
X842854Y962448D01*
Y963506D01*
X841796Y964564D01*
X839680D01*
X838622Y963506D01*
X879476Y1053676D02*
X878418Y1054734D01*
X876302D01*
X875244Y1053676D01*
Y1049444D01*
X876302Y1048386D01*
X878418D01*
X879476Y1049444D01*
X885824Y1048386D02*
X881592D01*
X885824Y1052618D01*
Y1053676D01*
X884766Y1054734D01*
X882650D01*
X881592Y1053676D01*
X887940Y1048386D02*
X890056D01*
X888998D01*
Y1054734D01*
X887940Y1053676D01*
X1127420Y986238D02*
X1126362Y987296D01*
X1124246D01*
X1123188Y986238D01*
Y982006D01*
X1124246Y980948D01*
X1126362D01*
X1127420Y982006D01*
X1133768Y980948D02*
X1129536D01*
X1133768Y985180D01*
Y986238D01*
X1132710Y987296D01*
X1130594D01*
X1129536Y986238D01*
X1140116Y987296D02*
X1138000Y986238D01*
X1135884Y984122D01*
Y982006D01*
X1136942Y980948D01*
X1139058D01*
X1140116Y982006D01*
Y983064D01*
X1139058Y984122D01*
X1135884D01*
X1103208Y727126D02*
X1102150Y728184D01*
X1100034D01*
X1098976Y727126D01*
Y722894D01*
X1100034Y721836D01*
X1102150D01*
X1103208Y722894D01*
X1109556Y721836D02*
X1105324D01*
X1109556Y726068D01*
Y727126D01*
X1108498Y728184D01*
X1106382D01*
X1105324Y727126D01*
X1111672Y728184D02*
X1115904D01*
Y727126D01*
X1111672Y722894D01*
Y721836D01*
X687918Y590126D02*
X686860Y591184D01*
X684744D01*
X683686Y590126D01*
Y585894D01*
X684744Y584836D01*
X686860D01*
X687918Y585894D01*
X694266Y584836D02*
X690034D01*
X694266Y589068D01*
Y590126D01*
X693208Y591184D01*
X691092D01*
X690034Y590126D01*
X696382D02*
X697440Y591184D01*
X699556D01*
X700614Y590126D01*
Y585894D01*
X699556Y584836D01*
X697440D01*
X696382Y585894D01*
Y590126D01*
X643997Y625686D02*
X642939Y626744D01*
X640823D01*
X639765Y625686D01*
Y621454D01*
X640823Y620396D01*
X642939D01*
X643997Y621454D01*
X646113Y620396D02*
X648229D01*
X647171D01*
Y626744D01*
X646113Y625686D01*
X651403Y621454D02*
X652461Y620396D01*
X654577D01*
X655635Y621454D01*
Y625686D01*
X654577Y626744D01*
X652461D01*
X651403Y625686D01*
Y624628D01*
X652461Y623570D01*
X655635D01*
X645582Y669754D02*
X644524Y670812D01*
X642408D01*
X641350Y669754D01*
Y665522D01*
X642408Y664464D01*
X644524D01*
X645582Y665522D01*
X647698Y664464D02*
X649814D01*
X648756D01*
Y670812D01*
X647698Y669754D01*
X652988D02*
X654046Y670812D01*
X656162D01*
X657220Y669754D01*
Y668696D01*
X656162Y667638D01*
X657220Y666580D01*
Y665522D01*
X656162Y664464D01*
X654046D01*
X652988Y665522D01*
Y666580D01*
X654046Y667638D01*
X652988Y668696D01*
Y669754D01*
X654046Y667638D02*
X656162D01*
X648376Y767544D02*
X647318Y768602D01*
X645202D01*
X644144Y767544D01*
Y763312D01*
X645202Y762254D01*
X647318D01*
X648376Y763312D01*
X650492Y762254D02*
X652608D01*
X651550D01*
Y768602D01*
X650492Y767544D01*
X655782Y768602D02*
X660014D01*
Y767544D01*
X655782Y763312D01*
Y762254D01*
X755757Y911436D02*
X754699Y912494D01*
X752583D01*
X751525Y911436D01*
Y907204D01*
X752583Y906146D01*
X754699D01*
X755757Y907204D01*
X757873Y906146D02*
X759989D01*
X758931D01*
Y912494D01*
X757873Y911436D01*
X767395Y912494D02*
X765279Y911436D01*
X763163Y909320D01*
Y907204D01*
X764221Y906146D01*
X766337D01*
X767395Y907204D01*
Y908262D01*
X766337Y909320D01*
X763163D01*
X783697Y1042246D02*
X782639Y1043304D01*
X780523D01*
X779465Y1042246D01*
Y1038014D01*
X780523Y1036956D01*
X782639D01*
X783697Y1038014D01*
X785813Y1036956D02*
X787929D01*
X786871D01*
Y1043304D01*
X785813Y1042246D01*
X795335Y1043304D02*
X791103D01*
Y1040130D01*
X793219Y1041188D01*
X794277D01*
X795335Y1040130D01*
Y1038014D01*
X794277Y1036956D01*
X792161D01*
X791103Y1038014D01*
X724830Y1024592D02*
X723772Y1025650D01*
X721656D01*
X720598Y1024592D01*
Y1020360D01*
X721656Y1019302D01*
X723772D01*
X724830Y1020360D01*
X726946Y1019302D02*
X729062D01*
X728004D01*
Y1025650D01*
X726946Y1024592D01*
X735410Y1019302D02*
Y1025650D01*
X732236Y1022476D01*
X736468D01*
X884027Y780626D02*
X882969Y781684D01*
X880853D01*
X879795Y780626D01*
Y776394D01*
X880853Y775336D01*
X882969D01*
X884027Y776394D01*
X886143Y775336D02*
X888259D01*
X887201D01*
Y781684D01*
X886143Y780626D01*
X891433D02*
X892491Y781684D01*
X894607D01*
X895665Y780626D01*
Y779568D01*
X894607Y778510D01*
X893549D01*
X894607D01*
X895665Y777452D01*
Y776394D01*
X894607Y775336D01*
X892491D01*
X891433Y776394D01*
X913237Y799676D02*
X912179Y800734D01*
X910063D01*
X909005Y799676D01*
Y795444D01*
X910063Y794386D01*
X912179D01*
X913237Y795444D01*
X915353Y794386D02*
X917469D01*
X916411D01*
Y800734D01*
X915353Y799676D01*
X924875Y794386D02*
X920643D01*
X924875Y798618D01*
Y799676D01*
X923817Y800734D01*
X921701D01*
X920643Y799676D01*
X1019705Y840316D02*
X1018647Y841374D01*
X1016531D01*
X1015473Y840316D01*
Y836084D01*
X1016531Y835026D01*
X1018647D01*
X1019705Y836084D01*
X1021821Y835026D02*
X1023937D01*
X1022879D01*
Y841374D01*
X1021821Y840316D01*
X1027111Y835026D02*
X1029227D01*
X1028169D01*
Y841374D01*
X1027111Y840316D01*
X933557Y845396D02*
X932499Y846454D01*
X930383D01*
X929325Y845396D01*
Y841164D01*
X930383Y840106D01*
X932499D01*
X933557Y841164D01*
X935673Y840106D02*
X937789D01*
X936731D01*
Y846454D01*
X935673Y845396D01*
X940963D02*
X942021Y846454D01*
X944137D01*
X945195Y845396D01*
Y841164D01*
X944137Y840106D01*
X942021D01*
X940963Y841164D01*
Y845396D01*
X691092Y827616D02*
X690034Y828674D01*
X687918D01*
X686860Y827616D01*
Y823384D01*
X687918Y822326D01*
X690034D01*
X691092Y823384D01*
X693208D02*
X694266Y822326D01*
X696382D01*
X697440Y823384D01*
Y827616D01*
X696382Y828674D01*
X694266D01*
X693208Y827616D01*
Y826558D01*
X694266Y825500D01*
X697440D01*
X597112Y892386D02*
X596054Y893444D01*
X593938D01*
X592880Y892386D01*
Y888154D01*
X593938Y887096D01*
X596054D01*
X597112Y888154D01*
X599228Y892386D02*
X600286Y893444D01*
X602402D01*
X603460Y892386D01*
Y891328D01*
X602402Y890270D01*
X603460Y889212D01*
Y888154D01*
X602402Y887096D01*
X600286D01*
X599228Y888154D01*
Y889212D01*
X600286Y890270D01*
X599228Y891328D01*
Y892386D01*
X600286Y890270D02*
X602402D01*
X641562Y788246D02*
X640504Y789304D01*
X638388D01*
X637330Y788246D01*
Y784014D01*
X638388Y782956D01*
X640504D01*
X641562Y784014D01*
X643678Y789304D02*
X647910D01*
Y788246D01*
X643678Y784014D01*
Y782956D01*
X926042Y924136D02*
X924984Y925194D01*
X922868D01*
X921810Y924136D01*
Y919904D01*
X922868Y918846D01*
X924984D01*
X926042Y919904D01*
X932390Y925194D02*
X930274Y924136D01*
X928158Y922020D01*
Y919904D01*
X929216Y918846D01*
X931332D01*
X932390Y919904D01*
Y920962D01*
X931332Y922020D01*
X928158D01*
X762212Y896196D02*
X761154Y897254D01*
X759038D01*
X757980Y896196D01*
Y891964D01*
X759038Y890906D01*
X761154D01*
X762212Y891964D01*
X768560Y897254D02*
X764328D01*
Y894080D01*
X766444Y895138D01*
X767502D01*
X768560Y894080D01*
Y891964D01*
X767502Y890906D01*
X765386D01*
X764328Y891964D01*
X802852Y902546D02*
X801794Y903604D01*
X799678D01*
X798620Y902546D01*
Y898314D01*
X799678Y897256D01*
X801794D01*
X802852Y898314D01*
X808142Y897256D02*
Y903604D01*
X804968Y900430D01*
X809200D01*
X631402Y943186D02*
X630344Y944244D01*
X628228D01*
X627170Y943186D01*
Y938954D01*
X628228Y937896D01*
X630344D01*
X631402Y938954D01*
X633518Y943186D02*
X634576Y944244D01*
X636692D01*
X637750Y943186D01*
Y942128D01*
X636692Y941070D01*
X635634D01*
X636692D01*
X637750Y940012D01*
Y938954D01*
X636692Y937896D01*
X634576D01*
X633518Y938954D01*
X598382Y945726D02*
X597324Y946784D01*
X595208D01*
X594150Y945726D01*
Y941494D01*
X595208Y940436D01*
X597324D01*
X598382Y941494D01*
X604730Y940436D02*
X600498D01*
X604730Y944668D01*
Y945726D01*
X603672Y946784D01*
X601556D01*
X600498Y945726D01*
X677332Y943058D02*
X676274Y944116D01*
X674158D01*
X673100Y943058D01*
Y938826D01*
X674158Y937768D01*
X676274D01*
X677332Y938826D01*
X679448Y937768D02*
X681564D01*
X680506D01*
Y944116D01*
X679448Y943058D01*
X1029655Y940436D02*
Y946784D01*
X1032829D01*
X1033887Y945726D01*
Y943610D01*
X1032829Y942552D01*
X1029655D01*
X1031771D02*
X1033887Y940436D01*
X1036003D02*
X1038119D01*
X1037061D01*
Y946784D01*
X1036003Y945726D01*
X1041293Y941494D02*
X1042351Y940436D01*
X1044467D01*
X1045525Y941494D01*
Y945726D01*
X1044467Y946784D01*
X1042351D01*
X1041293Y945726D01*
Y944668D01*
X1042351Y943610D01*
X1045525D01*
X1094425Y970916D02*
Y977264D01*
X1097599D01*
X1098657Y976206D01*
Y974090D01*
X1097599Y973032D01*
X1094425D01*
X1096541D02*
X1098657Y970916D01*
X1100773D02*
X1102889D01*
X1101831D01*
Y977264D01*
X1100773Y976206D01*
X1106063D02*
X1107121Y977264D01*
X1109237D01*
X1110295Y976206D01*
Y975148D01*
X1109237Y974090D01*
X1110295Y973032D01*
Y971974D01*
X1109237Y970916D01*
X1107121D01*
X1106063Y971974D01*
Y973032D01*
X1107121Y974090D01*
X1106063Y975148D01*
Y976206D01*
X1107121Y974090D02*
X1109237D01*
D15*
X1067320Y965040D02*
X1088910D01*
X1067320Y932340D02*
X1088910D01*
M02*
