G04*
G04 #@! TF.GenerationSoftware,Altium Limited,Altium Designer,24.9.1 (31)*
G04*
G04 Layer_Color=8421504*
%FSLAX44Y44*%
%MOMM*%
G71*
G04*
G04 #@! TF.SameCoordinates,0288D2A1-9ADD-411E-8E8B-FA1067C2B916*
G04*
G04*
G04 #@! TF.FilePolarity,Positive*
G04*
G01*
G75*
%ADD16R,1.3300X1.3300*%
%ADD17R,0.9000X2.0000*%
%ADD18R,2.0000X0.9000*%
%ADD19R,0.4627X0.5564*%
%ADD20R,1.4750X0.4500*%
%ADD21R,3.1000X5.1800*%
G04:AMPARAMS|DCode=22|XSize=0.55mm|YSize=1.25mm|CornerRadius=0.0495mm|HoleSize=0mm|Usage=FLASHONLY|Rotation=90.000|XOffset=0mm|YOffset=0mm|HoleType=Round|Shape=RoundedRectangle|*
%AMROUNDEDRECTD22*
21,1,0.5500,1.1510,0,0,90.0*
21,1,0.4510,1.2500,0,0,90.0*
1,1,0.0990,0.5755,0.2255*
1,1,0.0990,0.5755,-0.2255*
1,1,0.0990,-0.5755,-0.2255*
1,1,0.0990,-0.5755,0.2255*
%
%ADD22ROUNDEDRECTD22*%
%ADD23R,0.6000X0.6000*%
%ADD24R,1.9200X5.5000*%
%ADD25R,0.4000X0.8000*%
%ADD26R,0.4500X0.4500*%
%ADD27R,0.4200X0.4600*%
%ADD28R,1.2621X0.8581*%
%ADD29R,1.6000X1.0000*%
%ADD30R,1.6500X3.2500*%
%ADD31R,0.4600X0.4200*%
%ADD32R,1.2500X1.0000*%
%ADD33R,0.6000X0.7000*%
%ADD34R,0.8581X1.2621*%
%ADD35R,2.1800X1.6000*%
%ADD36R,2.2000X1.6000*%
%ADD37R,0.8000X0.6000*%
%ADD38R,1.2500X1.4000*%
%ADD39R,1.0000X0.9000*%
%ADD40R,1.4549X1.5562*%
%ADD41R,1.6000X0.9600*%
%ADD42R,0.4000X0.4000*%
%ADD43R,0.6800X0.6800*%
%ADD44R,0.9578X1.2621*%
G04:AMPARAMS|DCode=45|XSize=1.4741mm|YSize=0.5849mm|CornerRadius=0.2925mm|HoleSize=0mm|Usage=FLASHONLY|Rotation=270.000|XOffset=0mm|YOffset=0mm|HoleType=Round|Shape=RoundedRectangle|*
%AMROUNDEDRECTD45*
21,1,1.4741,0.0000,0,0,270.0*
21,1,0.8892,0.5849,0,0,270.0*
1,1,0.5849,0.0000,-0.4446*
1,1,0.5849,0.0000,0.4446*
1,1,0.5849,0.0000,0.4446*
1,1,0.5849,0.0000,-0.4446*
%
%ADD45ROUNDEDRECTD45*%
%ADD46R,0.5849X1.4741*%
%ADD47R,0.7000X0.6500*%
%ADD48R,1.2065X1.5082*%
%ADD49R,0.8500X0.7000*%
%ADD50R,0.6600X0.6200*%
%ADD51R,0.2500X0.5750*%
%ADD52R,0.2500X0.5500*%
%ADD53R,0.4000X1.2500*%
%ADD54R,1.0000X0.4000*%
%ADD55R,0.5500X0.2500*%
%ADD56R,0.4500X0.2250*%
%ADD57R,1.0500X0.4000*%
%ADD58R,1.0546X1.3562*%
%ADD59R,1.4500X0.9500*%
%ADD60O,1.4000X0.6000*%
%ADD61R,0.6725X0.7154*%
%ADD62R,1.0000X1.0500*%
%ADD63R,1.0200X0.8400*%
%ADD64R,1.6000X2.2000*%
%ADD65R,1.6000X2.1800*%
%ADD66R,1.4000X1.2500*%
%ADD67R,2.6062X1.7029*%
%ADD68R,2.8062X1.1542*%
%ADD69R,0.5725X0.5682*%
%ADD70R,0.5600X0.5200*%
%ADD71R,1.0121X1.2084*%
%ADD72R,1.0500X0.9500*%
%ADD73R,0.8100X0.9900*%
%ADD74R,0.4000X0.3200*%
%ADD75R,1.2000X1.2000*%
%ADD76R,1.5000X1.6000*%
%ADD77R,2.7200X1.0200*%
%ADD78R,0.7000X0.6000*%
D16*
X1276220Y652909D02*
D03*
X1257870D02*
D03*
X1239520D02*
D03*
X1276220Y671260D02*
D03*
X1257870D02*
D03*
X1239520D02*
D03*
X1276220Y689610D02*
D03*
X1257870D02*
D03*
X1239520D02*
D03*
D17*
X1325020Y571160D02*
D03*
X1312320D02*
D03*
X1299620D02*
D03*
X1286920D02*
D03*
X1274220D02*
D03*
X1261520D02*
D03*
X1248820D02*
D03*
X1236120D02*
D03*
X1223420D02*
D03*
X1210720D02*
D03*
D18*
X1352870Y746260D02*
D03*
Y733560D02*
D03*
Y720860D02*
D03*
Y708160D02*
D03*
Y695460D02*
D03*
Y682760D02*
D03*
Y670060D02*
D03*
Y657360D02*
D03*
Y644660D02*
D03*
Y631960D02*
D03*
Y619260D02*
D03*
Y606560D02*
D03*
Y593860D02*
D03*
Y581160D02*
D03*
X1182870D02*
D03*
Y593860D02*
D03*
Y606560D02*
D03*
Y619260D02*
D03*
Y631960D02*
D03*
Y644660D02*
D03*
Y657360D02*
D03*
Y670060D02*
D03*
Y682760D02*
D03*
Y695460D02*
D03*
Y708160D02*
D03*
Y720860D02*
D03*
Y733560D02*
D03*
Y746260D02*
D03*
D19*
X881380Y1036042D02*
D03*
Y1028978D02*
D03*
D20*
X904240Y1035350D02*
D03*
Y1028850D02*
D03*
Y1022350D02*
D03*
Y1015850D02*
D03*
Y1009350D02*
D03*
Y1002850D02*
D03*
Y996350D02*
D03*
Y989850D02*
D03*
Y983350D02*
D03*
Y976850D02*
D03*
Y970350D02*
D03*
Y963850D02*
D03*
Y957350D02*
D03*
Y950850D02*
D03*
X963000D02*
D03*
Y957350D02*
D03*
Y963850D02*
D03*
Y970350D02*
D03*
Y976850D02*
D03*
Y983350D02*
D03*
Y989850D02*
D03*
Y996350D02*
D03*
Y1002850D02*
D03*
Y1009350D02*
D03*
Y1015850D02*
D03*
Y1022350D02*
D03*
Y1028850D02*
D03*
Y1035350D02*
D03*
D21*
X933620Y993100D02*
D03*
D22*
X889420Y894080D02*
D03*
Y881380D02*
D03*
Y868680D02*
D03*
Y855980D02*
D03*
X941920Y894080D02*
D03*
Y881380D02*
D03*
Y868680D02*
D03*
Y855980D02*
D03*
D23*
X974090Y857420D02*
D03*
Y846920D02*
D03*
X971550Y818980D02*
D03*
Y829480D02*
D03*
X855980Y854880D02*
D03*
Y844380D02*
D03*
D24*
X643920Y1002030D02*
D03*
X692120D02*
D03*
D25*
X986790Y874710D02*
D03*
Y898210D02*
D03*
D26*
X647700Y563880D02*
D03*
X639700D02*
D03*
X649160Y589280D02*
D03*
X641160D02*
D03*
D27*
X687070Y579370D02*
D03*
Y572770D02*
D03*
X866140Y973330D02*
D03*
Y979930D02*
D03*
X646430Y613660D02*
D03*
Y607060D02*
D03*
D28*
X1172210Y1032660D02*
D03*
Y1017120D02*
D03*
X1336040Y531010D02*
D03*
Y515470D02*
D03*
X1374140Y531010D02*
D03*
Y515470D02*
D03*
X1129030Y826920D02*
D03*
Y811380D02*
D03*
D29*
X1132840Y967500D02*
D03*
Y937500D02*
D03*
D30*
X1062280Y1098550D02*
D03*
X1005280D02*
D03*
X1062280Y1043940D02*
D03*
X1005280D02*
D03*
D31*
X851660Y951230D02*
D03*
X845060D02*
D03*
X860300Y932180D02*
D03*
X866900D02*
D03*
D32*
X1129030Y721040D02*
D03*
Y701040D02*
D03*
D33*
X850900Y982130D02*
D03*
Y971130D02*
D03*
D34*
X1218080Y847090D02*
D03*
X1202540D02*
D03*
X1126340Y1008380D02*
D03*
X1141880D02*
D03*
D35*
X1365480Y845820D02*
D03*
D36*
X1273580D02*
D03*
D37*
X727710Y940920D02*
D03*
Y953920D02*
D03*
D38*
X744850Y1003300D02*
D03*
X728350D02*
D03*
D39*
X746760Y967360D02*
D03*
Y983360D02*
D03*
D40*
X799196Y988060D02*
D03*
X780684D02*
D03*
D41*
X773430Y937260D02*
D03*
D42*
X766930Y928460D02*
D03*
X773430D02*
D03*
X779930D02*
D03*
X766930Y946060D02*
D03*
X773430D02*
D03*
X779930D02*
D03*
D43*
X782010Y1026160D02*
D03*
X791210D02*
D03*
D44*
X661322Y646430D02*
D03*
X646778D02*
D03*
X664210Y744220D02*
D03*
X649666D02*
D03*
D45*
X660400Y686608D02*
D03*
X650900Y705312D02*
D03*
D46*
X669900D02*
D03*
D47*
X615950Y865740D02*
D03*
Y879240D02*
D03*
D48*
X617569Y836930D02*
D03*
X596552D02*
D03*
D49*
X641350Y819750D02*
D03*
Y831250D02*
D03*
D50*
X655910Y798830D02*
D03*
X647110D02*
D03*
D51*
X657640Y869640D02*
D03*
Y897900D02*
D03*
D52*
X662640Y869520D02*
D03*
Y898020D02*
D03*
D53*
X668390Y873020D02*
D03*
Y894520D02*
D03*
D54*
X668890Y883770D02*
D03*
D55*
X654640Y891270D02*
D03*
Y886270D02*
D03*
Y881270D02*
D03*
Y876270D02*
D03*
D56*
X654140Y871400D02*
D03*
Y896140D02*
D03*
D57*
X675640Y877270D02*
D03*
Y890270D02*
D03*
D58*
X662940Y830580D02*
D03*
X677456D02*
D03*
D59*
X725170Y859950D02*
D03*
Y879950D02*
D03*
D60*
X729860Y763270D02*
D03*
Y750570D02*
D03*
Y737870D02*
D03*
Y725170D02*
D03*
Y712470D02*
D03*
Y699770D02*
D03*
Y687070D02*
D03*
Y674370D02*
D03*
X784860Y763270D02*
D03*
Y750570D02*
D03*
Y737870D02*
D03*
Y725170D02*
D03*
Y712470D02*
D03*
Y699770D02*
D03*
Y687070D02*
D03*
Y674370D02*
D03*
D61*
X869950Y812506D02*
D03*
Y802935D02*
D03*
D62*
Y779660D02*
D03*
Y764660D02*
D03*
D63*
X904240Y825850D02*
D03*
Y812450D02*
D03*
D64*
X1071880Y782550D02*
D03*
D65*
Y690650D02*
D03*
D66*
X1043940Y812170D02*
D03*
Y828670D02*
D03*
D67*
X764540Y876646D02*
D03*
Y855634D02*
D03*
D68*
X814070Y846350D02*
D03*
Y880850D02*
D03*
D69*
X857250Y875588D02*
D03*
Y884632D02*
D03*
D70*
X895260Y842010D02*
D03*
X903060D02*
D03*
X909230Y911860D02*
D03*
X917030D02*
D03*
D71*
X615950Y925460D02*
D03*
Y909423D02*
D03*
D72*
X643890Y925460D02*
D03*
Y910960D02*
D03*
D73*
X691430Y924560D02*
D03*
X677630D02*
D03*
D74*
X738980Y915670D02*
D03*
X744380D02*
D03*
D75*
X1055890Y958690D02*
D03*
Y938690D02*
D03*
D76*
X1088390Y948690D02*
D03*
D77*
X831850Y933480D02*
D03*
Y905480D02*
D03*
D78*
X1105320Y985520D02*
D03*
X1094320D02*
D03*
M02*
