G04*
G04 #@! TF.GenerationSoftware,Altium Limited,Altium Designer,24.9.1 (31)*
G04*
G04 Layer_Physical_Order=2*
G04 Layer_Color=16711680*
%FSLAX44Y44*%
%MOMM*%
G71*
G04*
G04 #@! TF.SameCoordinates,0288D2A1-9ADD-411E-8E8B-FA1067C2B916*
G04*
G04*
G04 #@! TF.FilePolarity,Positive*
G04*
G01*
G75*
%ADD15C,0.2540*%
%ADD125C,1.5500*%
%ADD126R,1.5500X1.5500*%
%ADD134C,0.6350*%
%ADD136C,1.1430*%
%ADD139C,0.8890*%
%ADD142C,1.6500*%
%ADD143R,1.6500X1.6500*%
%ADD144R,3.0000X5.0000*%
%ADD145R,5.0000X3.0000*%
%ADD146C,1.3500*%
%ADD147R,1.6500X1.6500*%
%ADD148C,1.2700*%
%ADD149C,0.8890*%
D15*
X784860Y1184910D02*
X800100Y1169670D01*
X774700D02*
X803910Y1140460D01*
X764758Y1184910D02*
X784860D01*
X763270Y1183422D02*
X764758Y1184910D01*
X763270Y1141730D02*
Y1183422D01*
X803910Y1070610D02*
Y1140460D01*
X838200Y1093470D02*
X899160D01*
X922020Y1070610D01*
X1071880Y993140D02*
X1073150Y991870D01*
X1041400Y993140D02*
X1071880D01*
X1040130Y994410D02*
X1041400Y993140D01*
X1050290Y1007110D02*
X1053039D01*
X1058119Y1002030D01*
X1099820Y1008380D02*
X1101090Y1007110D01*
X1024890Y984250D02*
X1086822Y922318D01*
X1085850Y1008380D02*
X1099820D01*
X1079500Y1002030D02*
X1085850Y1008380D01*
X1086822Y922318D02*
X1093172D01*
X1058119Y1002030D02*
X1079500D01*
X888630Y983350D02*
X941070Y930910D01*
Y924560D02*
Y930910D01*
X882650Y1008380D02*
X953770Y937260D01*
X858520Y918210D02*
X887730D01*
X899160Y929640D01*
X991870Y967740D02*
Y986790D01*
X1000760Y1016994D02*
X1007447Y1023681D01*
Y1026497D02*
X1012190Y1031240D01*
X992207Y1032847D02*
X999490Y1040130D01*
X974090Y1004570D02*
Y1026428D01*
X983551Y1020381D02*
X992207Y1029037D01*
X974090Y1004570D02*
X991870Y986790D01*
X974090Y1026428D02*
X991602Y1043940D01*
X992207Y1029037D02*
Y1032847D01*
X996950Y998220D02*
Y999362D01*
X1007447Y1023681D02*
Y1026497D01*
X996950Y999362D02*
X1019938Y1022350D01*
X1000760Y1016000D02*
Y1016994D01*
X1016000Y1005840D02*
X1028700Y1018540D01*
X1211580Y472440D02*
X1371472D01*
X1292860Y523240D02*
X1400810Y631190D01*
X1330960Y608330D02*
Y610870D01*
X1316990Y594360D02*
X1330960Y608330D01*
X1267460Y523240D02*
X1385570Y641350D01*
X1379002Y488950D02*
X1380490Y490438D01*
X1217960Y755620D02*
X1328420Y645160D01*
X1380490Y490438D02*
Y588010D01*
X1211580Y631190D02*
X1328420D01*
X1400810D02*
Y695960D01*
X1385570Y641350D02*
Y708660D01*
X1380490Y588010D02*
X1398270Y605790D01*
X1136650Y461010D02*
X1365430D01*
X1119544Y478116D02*
X1136650Y461010D01*
X1111924Y478116D02*
X1119544D01*
X1109980Y480060D02*
X1111924Y478116D01*
X1118870Y461010D02*
X1120538D01*
X1153160Y788670D02*
Y862330D01*
X1162610Y755620D02*
X1217960D01*
X1455420Y556388D02*
Y824538D01*
X1365430Y461010D02*
X1459230Y554809D01*
X1463040Y553231D02*
Y827694D01*
X1371472Y472440D02*
X1455420Y556388D01*
X1445260Y588408D02*
X1451610Y594758D01*
X1445260Y586740D02*
Y588408D01*
X1459230Y554809D02*
Y826116D01*
X633730Y914400D02*
X662940Y943610D01*
X1262996Y1022350D02*
X1459230Y826116D01*
X1466850Y551653D02*
Y829310D01*
X1252220Y1043940D02*
X1466850Y829310D01*
X1250604Y1040130D02*
X1463040Y827694D01*
X609600Y699770D02*
X632460Y722630D01*
X609600Y652780D02*
Y699770D01*
Y652780D02*
X610870Y651510D01*
X741680Y897890D02*
X749300D01*
X783590Y965200D02*
X801370Y947420D01*
Y791210D02*
Y947420D01*
X763270Y1141730D02*
X779780Y1125220D01*
X833120Y688340D02*
X1032510Y488950D01*
X961390Y594360D02*
X1316990D01*
X845820Y709930D02*
X961390Y594360D01*
X1032510Y488950D02*
X1379002D01*
X1120538Y461010D02*
X1126888Y454660D01*
X1364469D01*
X1463040Y553231D01*
X1358427Y443230D02*
X1466850Y551653D01*
X999490Y1040130D02*
X1250604D01*
X1261418Y1018540D02*
X1455420Y824538D01*
X1451610Y594758D02*
Y822960D01*
X1019938Y1022350D02*
X1262996D01*
X1028700Y1018540D02*
X1261418D01*
X1244600Y873760D02*
X1400810D01*
X1451610Y822960D01*
X1236980Y866140D02*
X1244600Y873760D01*
X1256030Y443230D02*
X1358427D01*
X779780Y1062990D02*
Y1125220D01*
X803910Y1070610D02*
X812800Y1061720D01*
X779780Y1062990D02*
X1211580Y631190D01*
X812800Y1061720D02*
X856510D01*
X991602Y1043940D02*
X1252220D01*
X856510Y1061720D02*
X1162610Y755620D01*
X953770Y937260D02*
X956310Y934720D01*
X1012190Y1031240D02*
X1117675D01*
X1093172Y922318D02*
X1153160Y862330D01*
X697230Y855980D02*
X698500Y857250D01*
X633730Y890270D02*
Y914400D01*
X712470Y927100D02*
X741680Y897890D01*
D125*
X1242060Y523240D02*
D03*
X1267460D02*
D03*
D126*
X1292860D02*
D03*
D134*
X765810Y822960D02*
X779930Y837080D01*
Y910740D01*
D136*
X1395730Y845820D02*
X1426210Y815340D01*
Y539750D02*
Y815340D01*
X1402005Y515545D02*
X1426210Y539750D01*
D139*
X897890Y817880D02*
X941070D01*
X641350Y855980D02*
X697230D01*
X877570Y838200D02*
X897890Y817880D01*
X714375Y906145D02*
X715010Y905510D01*
X679450Y906780D02*
X680085Y906145D01*
X714375D01*
D142*
X749300Y1169670D02*
D03*
X774700D02*
D03*
X800100D02*
D03*
X914400D02*
D03*
X939800D02*
D03*
X965200D02*
D03*
X552450Y725170D02*
D03*
Y699770D02*
D03*
Y674370D02*
D03*
D143*
X825500Y1169670D02*
D03*
X990600D02*
D03*
D144*
X510540Y875030D02*
D03*
D145*
X513080Y937260D02*
D03*
D146*
X1043940Y858920D02*
D03*
Y908920D02*
D03*
D147*
X552450Y648970D02*
D03*
D148*
X953770Y937260D02*
D03*
X983551Y1020381D02*
D03*
X1000760Y1016000D02*
D03*
X1016000Y1005840D02*
D03*
X996950Y998220D02*
D03*
X991870Y967740D02*
D03*
X662940Y943610D02*
D03*
X633730Y890270D02*
D03*
X641350Y855980D02*
D03*
X765810Y822960D02*
D03*
X698500Y857250D02*
D03*
X712470Y927100D02*
D03*
X715010Y905510D02*
D03*
X749300Y897890D02*
D03*
X679450Y906780D02*
D03*
X1328420Y645160D02*
D03*
X1385570Y708660D02*
D03*
X1330960Y610870D02*
D03*
X1400810Y695960D02*
D03*
X1328420Y631190D02*
D03*
X1398270Y605790D02*
D03*
X877570Y838200D02*
D03*
X920750Y1073150D02*
D03*
X939800Y928370D02*
D03*
X1101090Y1007110D02*
D03*
X1236980Y866140D02*
D03*
X1445260Y586740D02*
D03*
X1050290Y1007110D02*
D03*
X779930Y910740D02*
D03*
X838200Y1093470D02*
D03*
X783590Y965200D02*
D03*
X858520Y918210D02*
D03*
X899160Y929640D02*
D03*
X801370Y791210D02*
D03*
X833120Y688340D02*
D03*
X845820Y709930D02*
D03*
X941070Y817880D02*
D03*
X1216660Y473710D02*
D03*
X1117675Y1031240D02*
D03*
X1109980Y480060D02*
D03*
X1073150Y991870D02*
D03*
X1153160Y788670D02*
D03*
X1402005Y515545D02*
D03*
X632460Y722630D02*
D03*
X1395730Y845820D02*
D03*
X610870Y651510D02*
D03*
X1256030Y443230D02*
D03*
X1118870Y461010D02*
D03*
X1024890Y984250D02*
D03*
X1040130Y994410D02*
D03*
D149*
X888630Y983350D02*
D03*
X882650Y1008380D02*
D03*
M02*
