M48
;Layer_Color=9474304
;FILE_FORMAT=4:4
METRIC,LZ
;TYPE=PLATED
T01F00S00C0.3810
T02F00S00C1.1000
;TYPE=NON_PLATED
T04F00S00C1.0000
%
T01
X0083058Y0061976
X0085331Y006491
X008382Y0068326
Y0071247
X0087884Y0067945
X009271Y0068707
X0093345Y0063246
X0091313Y0073406
X0102997Y0076581
X0106045Y0082042
X0099314Y0086106
X0099187Y0088011
Y0089535
X009398Y0087249
X0092964Y0088265
X0091567Y0089789
X0093853Y009398
X0088519Y0095885
X0084963Y0081153
X0106172Y009525
T02
X0111633Y0064516
Y0067056
Y0069596
Y0072136
X0078232Y0055245
X0075692
X0073152
X0070612
T04
X0070311Y0089535
X0075311
M30
