G04*
G04 #@! TF.GenerationSoftware,Altium Limited,Altium Designer,24.9.1 (31)*
G04*
G04 Layer_Color=65535*
%FSLAX44Y44*%
%MOMM*%
G71*
G04*
G04 #@! TF.SameCoordinates,6BFB7B3A-7256-4563-B951-73D5F75FE77E*
G04*
G04*
G04 #@! TF.FilePolarity,Positive*
G04*
G01*
G75*
%ADD10C,0.2000*%
%ADD11C,0.2500*%
%ADD12C,0.1000*%
%ADD13C,0.1270*%
D10*
X906540Y706360D02*
G03*
X906540Y704360I0J-1000D01*
G01*
D02*
G03*
X906540Y706360I0J1000D01*
G01*
X850630Y799160D02*
G03*
X848630Y799160I-1000J0D01*
G01*
D02*
G03*
X850630Y799160I1000J0D01*
G01*
X962390Y860120D02*
G03*
X960390Y860120I-1000J0D01*
G01*
D02*
G03*
X962390Y860120I1000J0D01*
G01*
X1117330Y741360D02*
G03*
X1117330Y741360I-1000J0D01*
G01*
X687120Y552450D02*
G03*
X687120Y552450I-1000J0D01*
G01*
X1014200Y713740D02*
X1043200D01*
X838130Y772160D02*
X861130D01*
X949890Y833120D02*
X972890D01*
X1005940Y889544D02*
Y890996D01*
X1018440Y889544D02*
Y890996D01*
X808940Y925210D02*
X859840D01*
X808940Y951850D02*
X859840D01*
X889740Y852170D02*
X918740D01*
X771630Y673100D02*
X800630D01*
X1017270Y454130D02*
Y483130D01*
X772900Y773430D02*
X801900D01*
X963560Y957870D02*
Y962370D01*
X949060Y957870D02*
Y962370D01*
X1003680Y953850D02*
Y963850D01*
X987680Y953850D02*
Y963850D01*
X902400Y947890D02*
Y974890D01*
X926400Y947890D02*
Y974890D01*
X688110Y855350D02*
Y935350D01*
X781109Y920750D02*
X781110Y869950D01*
X688110Y935350D02*
X704620D01*
X688110Y855350D02*
X704620D01*
X738292D02*
X752262D01*
X738292Y935350D02*
X752262D01*
X944490Y722940D02*
Y729940D01*
X927490Y722940D02*
Y729940D01*
X924870Y668900D02*
X931870D01*
X924870Y651900D02*
X931870D01*
D11*
X941100Y912890D02*
G03*
X941100Y912890I-1250J0D01*
G01*
D12*
X859790Y702860D02*
X865540D01*
X871540D02*
X887540D01*
X893540D02*
X899290D01*
X859540Y727860D02*
X865540D01*
X871540D02*
X887540D01*
X893540D02*
X899540D01*
D13*
X1085330Y630160D02*
Y736360D01*
Y630160D02*
X1147330D01*
Y736360D01*
X1085330D02*
X1147330D01*
X691120Y521450D02*
X797320D01*
Y583450D01*
X691120D02*
X797320D01*
X691120Y521450D02*
Y583450D01*
X866352Y812376D02*
X865294Y813434D01*
X863178D01*
X862120Y812376D01*
Y808144D01*
X863178Y807086D01*
X865294D01*
X866352Y808144D01*
X872700Y813434D02*
X870584Y812376D01*
X868468Y810260D01*
Y808144D01*
X869526Y807086D01*
X871642D01*
X872700Y808144D01*
Y809202D01*
X871642Y810260D01*
X868468D01*
X801370Y967992D02*
Y961644D01*
X804544D01*
X805602Y962702D01*
Y966934D01*
X804544Y967992D01*
X801370D01*
X807718Y961644D02*
X809834D01*
X808776D01*
Y967992D01*
X807718Y966934D01*
X994622Y853016D02*
X993564Y854074D01*
X991448D01*
X990390Y853016D01*
Y848784D01*
X991448Y847726D01*
X993564D01*
X994622Y848784D01*
X1000970Y847726D02*
X996738D01*
X1000970Y851958D01*
Y853016D01*
X999912Y854074D01*
X997796D01*
X996738Y853016D01*
X979424Y494284D02*
Y500632D01*
X982598D01*
X983656Y499574D01*
Y497458D01*
X982598Y496400D01*
X979424D01*
X981540D02*
X983656Y494284D01*
X985772Y495342D02*
X986830Y494284D01*
X988946D01*
X990004Y495342D01*
Y499574D01*
X988946Y500632D01*
X986830D01*
X985772Y499574D01*
Y498516D01*
X986830Y497458D01*
X990004D01*
X769366Y818896D02*
Y825244D01*
X772540D01*
X773598Y824186D01*
Y822070D01*
X772540Y821012D01*
X769366D01*
X771482D02*
X773598Y818896D01*
X775714Y824186D02*
X776772Y825244D01*
X778888D01*
X779946Y824186D01*
Y823128D01*
X778888Y822070D01*
X779946Y821012D01*
Y819954D01*
X778888Y818896D01*
X776772D01*
X775714Y819954D01*
Y821012D01*
X776772Y822070D01*
X775714Y823128D01*
Y824186D01*
X776772Y822070D02*
X778888D01*
X768096Y718566D02*
Y724914D01*
X771270D01*
X772328Y723856D01*
Y721740D01*
X771270Y720682D01*
X768096D01*
X770212D02*
X772328Y718566D01*
X774444Y724914D02*
X778676D01*
Y723856D01*
X774444Y719624D01*
Y718566D01*
X1039920Y753746D02*
Y760094D01*
X1043094D01*
X1044152Y759036D01*
Y756920D01*
X1043094Y755862D01*
X1039920D01*
X1042036D02*
X1044152Y753746D01*
X1050500Y760094D02*
X1046268D01*
Y756920D01*
X1048384Y757978D01*
X1049442D01*
X1050500Y756920D01*
Y754804D01*
X1049442Y753746D01*
X1047326D01*
X1046268Y754804D01*
X886206Y897636D02*
Y903984D01*
X889380D01*
X890438Y902926D01*
Y900810D01*
X889380Y899752D01*
X886206D01*
X888322D02*
X890438Y897636D01*
X892554D02*
X894670D01*
X893612D01*
Y903984D01*
X892554Y902926D01*
X907288Y625346D02*
Y618998D01*
X910462D01*
X911520Y620056D01*
Y624288D01*
X910462Y625346D01*
X907288D01*
X917868Y624288D02*
X916810Y625346D01*
X914694D01*
X913636Y624288D01*
Y620056D01*
X914694Y618998D01*
X916810D01*
X917868Y620056D01*
X919984Y624288D02*
X921042Y625346D01*
X923158D01*
X924216Y624288D01*
Y623230D01*
X923158Y622172D01*
X922100D01*
X923158D01*
X924216Y621114D01*
Y620056D01*
X923158Y618998D01*
X921042D01*
X919984Y620056D01*
X685292Y598930D02*
X689524D01*
X687408D01*
Y592582D01*
X691640Y598930D02*
Y592582D01*
X694814D01*
X695872Y593640D01*
Y594698D01*
X694814Y595756D01*
X691640D01*
X694814D01*
X695872Y596814D01*
Y597872D01*
X694814Y598930D01*
X691640D01*
X702220Y592582D02*
X697988D01*
X702220Y596814D01*
Y597872D01*
X701162Y598930D01*
X699046D01*
X697988Y597872D01*
X1083818Y756156D02*
X1088050D01*
X1085934D01*
Y749808D01*
X1090166Y756156D02*
Y749808D01*
X1093340D01*
X1094398Y750866D01*
Y751924D01*
X1093340Y752982D01*
X1090166D01*
X1093340D01*
X1094398Y754040D01*
Y755098D01*
X1093340Y756156D01*
X1090166D01*
X1096514Y749808D02*
X1098630D01*
X1097572D01*
Y756156D01*
X1096514Y755098D01*
X1004570Y911098D02*
Y917446D01*
X1007744D01*
X1008802Y916388D01*
Y914272D01*
X1007744Y913214D01*
X1004570D01*
X1006686D02*
X1008802Y911098D01*
X1015150Y917446D02*
X1013034Y916388D01*
X1010918Y914272D01*
Y912156D01*
X1011976Y911098D01*
X1014092D01*
X1015150Y912156D01*
Y913214D01*
X1014092Y914272D01*
X1010918D01*
X901446Y996950D02*
Y1003298D01*
X904620D01*
X905678Y1002240D01*
Y1000124D01*
X904620Y999066D01*
X901446D01*
X903562D02*
X905678Y996950D01*
X910968D02*
Y1003298D01*
X907794Y1000124D01*
X912026D01*
X982726Y992378D02*
Y998726D01*
X985900D01*
X986958Y997668D01*
Y995552D01*
X985900Y994494D01*
X982726D01*
X984842D02*
X986958Y992378D01*
X989074Y997668D02*
X990132Y998726D01*
X992248D01*
X993306Y997668D01*
Y996610D01*
X992248Y995552D01*
X991190D01*
X992248D01*
X993306Y994494D01*
Y993436D01*
X992248Y992378D01*
X990132D01*
X989074Y993436D01*
X947420Y988568D02*
Y994916D01*
X950594D01*
X951652Y993858D01*
Y991742D01*
X950594Y990684D01*
X947420D01*
X949536D02*
X951652Y988568D01*
X958000D02*
X953768D01*
X958000Y992800D01*
Y993858D01*
X956942Y994916D01*
X954826D01*
X953768Y993858D01*
X687070Y964182D02*
Y957834D01*
X690244D01*
X691302Y958892D01*
Y963124D01*
X690244Y964182D01*
X687070D01*
X697650Y963124D02*
X696592Y964182D01*
X694476D01*
X693418Y963124D01*
Y958892D01*
X694476Y957834D01*
X696592D01*
X697650Y958892D01*
X699766Y957834D02*
X701882D01*
X700824D01*
Y964182D01*
X699766Y963124D01*
X879583Y751204D02*
X881699D01*
X880641D01*
Y744856D01*
X879583D01*
X881699D01*
X889105Y750146D02*
X888047Y751204D01*
X885931D01*
X884873Y750146D01*
Y745914D01*
X885931Y744856D01*
X888047D01*
X889105Y745914D01*
X891221Y744856D02*
X893337D01*
X892279D01*
Y751204D01*
X891221Y750146D01*
X906186Y686772D02*
X905128Y687830D01*
X903012D01*
X901954Y686772D01*
Y682540D01*
X903012Y681482D01*
X905128D01*
X906186Y682540D01*
X912534Y687830D02*
X908302D01*
Y684656D01*
X910418Y685714D01*
X911476D01*
X912534Y684656D01*
Y682540D01*
X911476Y681482D01*
X909360D01*
X908302Y682540D01*
X965876Y760940D02*
X964818Y761998D01*
X962702D01*
X961644Y760940D01*
Y756708D01*
X962702Y755650D01*
X964818D01*
X965876Y756708D01*
X971166Y755650D02*
Y761998D01*
X967992Y758824D01*
X972224D01*
X926760Y765766D02*
X925702Y766824D01*
X923586D01*
X922528Y765766D01*
Y761534D01*
X923586Y760476D01*
X925702D01*
X926760Y761534D01*
X928876Y765766D02*
X929934Y766824D01*
X932050D01*
X933108Y765766D01*
Y764708D01*
X932050Y763650D01*
X930992D01*
X932050D01*
X933108Y762592D01*
Y761534D01*
X932050Y760476D01*
X929934D01*
X928876Y761534D01*
X1026836Y992080D02*
X1025778Y993138D01*
X1023662D01*
X1022604Y992080D01*
Y987848D01*
X1023662Y986790D01*
X1025778D01*
X1026836Y987848D01*
X1028952Y986790D02*
X1031068D01*
X1030010D01*
Y993138D01*
X1028952Y992080D01*
X938530Y932178D02*
Y925830D01*
X941704D01*
X942762Y926888D01*
Y927946D01*
X941704Y929004D01*
X938530D01*
X941704D01*
X942762Y930062D01*
Y931120D01*
X941704Y932178D01*
X938530D01*
X944878Y925830D02*
X946994D01*
X945936D01*
Y932178D01*
X944878Y931120D01*
X1080262Y944370D02*
Y938022D01*
X1083436D01*
X1084494Y939080D01*
Y943312D01*
X1083436Y944370D01*
X1080262D01*
X1090842Y943312D02*
X1089784Y944370D01*
X1087668D01*
X1086610Y943312D01*
Y939080D01*
X1087668Y938022D01*
X1089784D01*
X1090842Y939080D01*
X1097190Y938022D02*
X1092958D01*
X1097190Y942254D01*
Y943312D01*
X1096132Y944370D01*
X1094016D01*
X1092958Y943312D01*
M02*
