G04*
G04 #@! TF.GenerationSoftware,Altium Limited,Altium Designer,24.9.1 (31)*
G04*
G04 Layer_Physical_Order=1*
G04 Layer_Color=255*
%FSLAX44Y44*%
%MOMM*%
G71*
G04*
G04 #@! TF.SameCoordinates,6BFB7B3A-7256-4563-B951-73D5F75FE77E*
G04*
G04*
G04 #@! TF.FilePolarity,Positive*
G04*
G01*
G75*
%ADD14R,3.3000X2.4500*%
%ADD15R,0.8500X0.2000*%
%ADD16R,1.9500X1.9500*%
%ADD17R,0.2500X3.3000*%
%ADD18R,2.0500X1.1000*%
%ADD19R,1.3082X0.8065*%
%ADD20R,2.2000X1.5500*%
%ADD21R,2.4500X3.3000*%
%ADD22R,1.6500X1.4000*%
%ADD23R,1.8000X1.3000*%
%ADD24R,1.7500X1.7500*%
%ADD25R,0.3000X0.8000*%
%ADD26R,0.8000X0.3000*%
%ADD27R,2.6000X1.0500*%
%ADD28R,2.2000X2.2000*%
%ADD29R,1.6500X1.4500*%
%ADD30R,1.9000X1.5000*%
%ADD31R,1.5000X1.9000*%
%ADD55C,0.5080*%
%ADD56C,0.4064*%
%ADD57C,0.3810*%
%ADD58C,0.2540*%
%ADD59C,0.2794*%
%ADD60C,0.4318*%
%ADD61C,0.6350*%
%ADD62C,1.0000*%
%ADD63R,5.0000X3.0000*%
%ADD64R,3.0000X5.0000*%
%ADD65R,1.6500X1.6500*%
%ADD66C,1.6500*%
%ADD67R,1.6500X1.6500*%
%ADD68C,0.8890*%
D14*
X1028700Y737740D02*
D03*
Y689740D02*
D03*
X904240Y828170D02*
D03*
Y876170D02*
D03*
X786130Y697100D02*
D03*
Y649100D02*
D03*
X787400Y797430D02*
D03*
Y749430D02*
D03*
D15*
X899290Y705360D02*
D03*
Y709360D02*
D03*
Y713360D02*
D03*
Y717360D02*
D03*
Y721360D02*
D03*
Y725360D02*
D03*
X859790D02*
D03*
Y721360D02*
D03*
Y717360D02*
D03*
Y713360D02*
D03*
Y709360D02*
D03*
Y705360D02*
D03*
D16*
X879540Y715360D02*
D03*
D17*
X868540D02*
D03*
X890540D02*
D03*
D18*
X849630Y788660D02*
D03*
Y755660D02*
D03*
X961390Y849620D02*
D03*
Y816620D02*
D03*
D19*
X1012190Y881761D02*
D03*
Y898779D02*
D03*
D20*
X854890Y938530D02*
D03*
X813890D02*
D03*
D21*
X993270Y468630D02*
D03*
X1041270D02*
D03*
D22*
X956310Y973120D02*
D03*
Y947120D02*
D03*
D23*
X995680Y974350D02*
D03*
Y943350D02*
D03*
D24*
X958850Y897890D02*
D03*
D25*
X951350Y912890D02*
D03*
X956350D02*
D03*
X961350D02*
D03*
X966350D02*
D03*
Y882890D02*
D03*
X961350D02*
D03*
X956350D02*
D03*
X951350D02*
D03*
D26*
X973850Y905390D02*
D03*
Y900390D02*
D03*
Y895390D02*
D03*
Y890390D02*
D03*
X943850D02*
D03*
Y895390D02*
D03*
Y900390D02*
D03*
Y905390D02*
D03*
D27*
X914400Y938890D02*
D03*
Y983890D02*
D03*
D28*
X723110Y852350D02*
D03*
Y938350D02*
D03*
X768110D02*
D03*
Y852350D02*
D03*
D29*
X1035050Y967830D02*
D03*
Y947330D02*
D03*
X974090Y736690D02*
D03*
Y716190D02*
D03*
D30*
X935990Y741440D02*
D03*
Y711440D02*
D03*
D31*
X913370Y660400D02*
D03*
X943370D02*
D03*
D55*
X859230Y939620D02*
X877731Y958121D01*
X884461D02*
X885190Y958850D01*
X855980Y939620D02*
X859230D01*
X877731Y958121D02*
X884461D01*
X1060450Y820420D02*
X1123950D01*
X1016385Y967830D02*
X1035050D01*
X1000910Y969120D02*
X1015095D01*
X1016385Y967830D01*
X956310Y973120D02*
X994450D01*
X944290Y983890D02*
X955060Y973120D01*
X914400Y983890D02*
X944290D01*
X768290Y938530D02*
X813890D01*
X723110Y938350D02*
X768110D01*
X914585Y817825D02*
X935338D01*
X936543Y816620D01*
X961390D01*
X861060Y828040D02*
X904110D01*
X768110Y852350D02*
X836750D01*
X861060Y828040D01*
X723110Y852350D02*
X768110D01*
D56*
X939800Y872490D02*
X941106D01*
X939800Y854710D02*
X944880Y849630D01*
X939800Y854710D02*
Y872490D01*
X947238Y878622D02*
X949582D01*
X941106Y872490D02*
X947238Y878622D01*
X993140Y861060D02*
X1002030Y869950D01*
X1005840D01*
X949582Y878622D02*
X951350Y880390D01*
X929640Y863856D02*
Y882650D01*
X919470Y853686D02*
X929640Y863856D01*
X937339Y889858D02*
X941882D01*
X930131Y882650D02*
X937339Y889858D01*
X929640Y882650D02*
X930131D01*
X1005840Y869950D02*
X1009903Y874014D01*
Y879761D02*
X1011904Y881761D01*
X1012190D01*
X1009903Y874014D02*
Y879761D01*
X919470Y839150D02*
Y853686D01*
X944880Y849630D02*
X961380D01*
X973870Y895370D02*
X991850D01*
D57*
X961390Y872490D02*
X972820Y861060D01*
X956580Y877300D02*
X961390Y872490D01*
X966120Y877220D01*
X972820Y861060D02*
X993140D01*
X943910Y973120D02*
X955060D01*
X938530Y967740D02*
X943910Y973120D01*
X938530Y939800D02*
Y967740D01*
X943370Y660400D02*
X965200D01*
X933450Y632460D02*
X943370Y642380D01*
Y658400D01*
X786130Y649100D02*
X853310D01*
X913370Y602850D02*
Y660400D01*
Y602850D02*
X939800Y576420D01*
X913370Y660400D02*
Y673340D01*
X927100Y687070D01*
X854380Y755660D02*
X882660D01*
X904240Y777240D02*
Y828040D01*
X882660Y755660D02*
X904240Y777240D01*
X974090Y669290D02*
Y716190D01*
X965200Y660400D02*
X974090Y669290D01*
X943370Y658400D02*
X1002030Y599740D01*
Y563880D02*
Y599740D01*
X1116330Y492760D02*
Y645160D01*
X1092200Y468630D02*
X1116330Y492760D01*
X1041270Y468630D02*
X1092200D01*
X1090930Y721360D02*
X1116330D01*
X1028700Y689740D02*
X1059310D01*
X1090930Y721360D01*
X1029970Y739010D02*
Y765810D01*
X990898Y881082D02*
X991870Y880110D01*
X975945Y889985D02*
X984848Y881082D01*
X990898D01*
X787400Y797430D02*
X815210D01*
X829310Y811530D01*
X849630D01*
Y788660D02*
Y811530D01*
X927735Y895390D02*
X943850D01*
X925830Y897295D02*
X927735Y895390D01*
X915670Y897890D02*
X916265Y897295D01*
X925830D01*
X943850Y895390D02*
Y900390D01*
X904370Y828040D02*
X914585Y817825D01*
X909320Y905510D02*
X943730D01*
X904240Y900430D02*
X909320Y905510D01*
X904240Y876170D02*
Y900430D01*
X1053801Y947330D02*
X1058971Y952500D01*
X1035050Y947330D02*
X1053801D01*
X999610Y912890D02*
X1034050Y947330D01*
X966350Y912890D02*
X999610D01*
X925495Y930720D02*
Y935545D01*
X922150Y938890D02*
X925495Y935545D01*
X943325Y912890D02*
X951350D01*
X925495Y930720D02*
X943325Y912890D01*
X914400Y938890D02*
X922150D01*
X993180Y943350D02*
X995680D01*
X768110Y938350D02*
X768290Y938530D01*
D58*
X966120Y882660D02*
X966350Y882890D01*
X966120Y877220D02*
Y882660D01*
X955060Y973120D02*
X956310D01*
X853310Y649100D02*
X854710Y647700D01*
X743580Y554369D02*
X819831Y630621D01*
X894080Y670560D02*
Y678180D01*
X819831Y630621D02*
X854141D01*
X894080Y670560D01*
X912430Y696530D02*
Y707872D01*
X894080Y678180D02*
X912430Y696530D01*
X899290Y709360D02*
X910942D01*
X912430Y707872D01*
X782320Y552450D02*
X866140Y468630D01*
X993270D01*
X839415Y687695D02*
X857080Y705360D01*
X839415Y684475D02*
Y687695D01*
X838200Y683260D02*
X839415Y684475D01*
X857080Y705360D02*
X859790D01*
X899290Y699900D02*
Y705360D01*
X878840Y679450D02*
X899290Y699900D01*
X823015Y618545D02*
X829365D01*
X830580Y619760D01*
X756920Y552450D02*
X823015Y618545D01*
X733439Y554369D02*
X743580D01*
X731520Y552450D02*
X733439Y554369D01*
X831850Y721360D02*
X859790D01*
X797560D02*
X831850D01*
Y718820D02*
X838200Y712470D01*
X831850Y718820D02*
Y721360D01*
X786130Y697100D02*
X835530D01*
X851790Y713360D01*
X859790D01*
X909485Y732845D02*
X911915D01*
X913130Y734060D01*
X849630Y755660D02*
X854380D01*
X904240Y828040D02*
X904370D01*
X904110D02*
X904240D01*
Y828170D01*
X943370Y658400D02*
Y660400D01*
X939800Y566420D02*
Y576420D01*
X1028700Y737740D02*
X1029970Y739010D01*
X973850Y890390D02*
X975130D01*
X975360Y890160D01*
X952740Y711440D02*
X957490Y716190D01*
X974090D01*
X935990Y711440D02*
X952740D01*
X956310Y736600D02*
X974000D01*
X974090Y736690D01*
X935990Y741440D02*
X951470D01*
X956310Y736600D01*
X913910Y721360D02*
X933990Y741440D01*
X899290Y721360D02*
X913910D01*
X933990Y741440D02*
X935990D01*
X881540Y713360D02*
X899290D01*
X913920D02*
X915840Y711440D01*
X899290Y713360D02*
X913920D01*
X915840Y711440D02*
X935990D01*
X879540Y715360D02*
X881540Y713360D01*
X825500Y727928D02*
Y787400D01*
X828068Y725360D02*
X859790D01*
X825500Y727928D02*
X828068Y725360D01*
X825500Y787400D02*
X849630Y811530D01*
X787400Y731520D02*
X797560Y721360D01*
X787400Y731520D02*
Y749430D01*
X868540Y715360D02*
Y736045D01*
X854380Y755660D02*
X858610Y751430D01*
Y745975D02*
Y751430D01*
Y745975D02*
X868540Y736045D01*
X904370Y828040D02*
X908360D01*
X919470Y839150D01*
X961380Y849630D02*
X961390Y849620D01*
X991850Y895370D02*
X991870Y895350D01*
X973850Y895390D02*
X973870Y895370D01*
X951350Y880390D02*
Y882890D01*
X973850Y905390D02*
X1003070D01*
X1123950Y820420D02*
X1125220Y821690D01*
X1003070Y905390D02*
X1009681Y898779D01*
X951230Y882770D02*
X951350Y882890D01*
X956350D02*
X956580Y882660D01*
Y877300D02*
Y882660D01*
X1125601Y881761D02*
X1127760Y883920D01*
X966330Y882910D02*
X966350Y882890D01*
X958850Y897890D02*
X966330Y890410D01*
Y882910D02*
Y890410D01*
X1009681Y898779D02*
X1012190D01*
X943730Y905510D02*
X943850Y905390D01*
X995680Y974350D02*
X1000910Y969120D01*
X956350Y912890D02*
Y947080D01*
X854890Y938530D02*
X855980Y939620D01*
X1058971Y952500D02*
X1061720D01*
X994450Y973120D02*
X995680Y974350D01*
X990450Y938120D02*
X995680Y943350D01*
X961580Y917212D02*
X982488Y938120D01*
X961580Y913120D02*
Y917212D01*
X982488Y938120D02*
X990450D01*
X961350Y912890D02*
X961580Y913120D01*
X956310Y947120D02*
X956350Y947080D01*
D59*
X899290Y725360D02*
X902000D01*
X909485Y732845D01*
D60*
X973850Y895390D02*
Y900390D01*
D61*
X1012190Y881761D02*
X1125601D01*
D62*
X703110Y895350D02*
D03*
X753110D02*
D03*
D63*
X1125220Y821690D02*
D03*
X1002030Y563880D02*
D03*
D64*
X1127760Y883920D02*
D03*
X939800Y566420D02*
D03*
D65*
X1116330Y721360D02*
D03*
D66*
Y695960D02*
D03*
Y670560D02*
D03*
Y645160D02*
D03*
X731520Y552450D02*
D03*
X756920D02*
D03*
X782320D02*
D03*
D67*
X706120D02*
D03*
D68*
X885190Y958850D02*
D03*
X939800Y872490D02*
D03*
X929640Y882650D02*
D03*
X938530Y939800D02*
D03*
X933450Y632460D02*
D03*
X853310Y649100D02*
D03*
X838200Y683260D02*
D03*
X878840Y679450D02*
D03*
X830580Y619760D02*
D03*
X838200Y712470D02*
D03*
X913130Y734060D02*
D03*
X927100Y687070D02*
D03*
X1029970Y765810D02*
D03*
X991870Y880110D02*
D03*
X993140Y861060D02*
D03*
X849630Y811530D02*
D03*
X915670Y897890D02*
D03*
X991870Y895350D02*
D03*
X1060450Y820420D02*
D03*
X1061720Y952500D02*
D03*
M02*
