G04*
G04 #@! TF.GenerationSoftware,Altium Limited,Altium Designer,24.9.1 (31)*
G04*
G04 Layer_Color=16711935*
%FSLAX44Y44*%
%MOMM*%
G71*
G04*
G04 #@! TF.SameCoordinates,6BFB7B3A-7256-4563-B951-73D5F75FE77E*
G04*
G04*
G04 #@! TF.FilePolarity,Negative*
G04*
G01*
G75*
%ADD48C,1.2032*%
%ADD49R,5.2032X3.2032*%
%ADD50R,3.2032X5.2032*%
%ADD51R,1.8532X1.8532*%
%ADD52C,1.8532*%
%ADD53R,1.8532X1.8532*%
%ADD54C,1.0922*%
D48*
X703110Y895350D02*
D03*
X753110D02*
D03*
D49*
X1125220Y821690D02*
D03*
X1002030Y563880D02*
D03*
D50*
X1127760Y883920D02*
D03*
X939800Y566420D02*
D03*
D51*
X1116330Y721360D02*
D03*
D52*
Y695960D02*
D03*
Y670560D02*
D03*
Y645160D02*
D03*
X731520Y552450D02*
D03*
X756920D02*
D03*
X782320D02*
D03*
D53*
X706120D02*
D03*
D54*
X885190Y958850D02*
D03*
X939800Y872490D02*
D03*
X929640Y882650D02*
D03*
X938530Y939800D02*
D03*
X933450Y632460D02*
D03*
X853310Y649100D02*
D03*
X838200Y683260D02*
D03*
X878840Y679450D02*
D03*
X830580Y619760D02*
D03*
X838200Y712470D02*
D03*
X913130Y734060D02*
D03*
X927100Y687070D02*
D03*
X1029970Y765810D02*
D03*
X991870Y880110D02*
D03*
X993140Y861060D02*
D03*
X849630Y811530D02*
D03*
X915670Y897890D02*
D03*
X991870Y895350D02*
D03*
X1060450Y820420D02*
D03*
X1061720Y952500D02*
D03*
M02*
