G04*
G04 #@! TF.GenerationSoftware,Altium Limited,Altium Designer,24.9.1 (31)*
G04*
G04 Layer_Color=8421504*
%FSLAX44Y44*%
%MOMM*%
G71*
G04*
G04 #@! TF.SameCoordinates,6BFB7B3A-7256-4563-B951-73D5F75FE77E*
G04*
G04*
G04 #@! TF.FilePolarity,Positive*
G04*
G01*
G75*
%ADD14R,3.3000X2.4500*%
%ADD15R,0.8500X0.2000*%
%ADD16R,1.9500X1.9500*%
%ADD17R,0.2500X3.3000*%
%ADD18R,2.0500X1.1000*%
%ADD19R,1.3082X0.8065*%
%ADD20R,2.2000X1.5500*%
%ADD21R,2.4500X3.3000*%
%ADD22R,1.6500X1.4000*%
%ADD23R,1.8000X1.3000*%
%ADD24R,1.7500X1.7500*%
%ADD25R,0.3000X0.8000*%
%ADD26R,0.8000X0.3000*%
%ADD27R,2.6000X1.0500*%
%ADD28R,2.2000X2.2000*%
%ADD29R,1.6500X1.4500*%
%ADD30R,1.9000X1.5000*%
%ADD31R,1.5000X1.9000*%
D14*
X1028700Y737740D02*
D03*
Y689740D02*
D03*
X904240Y828170D02*
D03*
Y876170D02*
D03*
X786130Y697100D02*
D03*
Y649100D02*
D03*
X787400Y797430D02*
D03*
Y749430D02*
D03*
D15*
X899290Y705360D02*
D03*
Y709360D02*
D03*
Y713360D02*
D03*
Y717360D02*
D03*
Y721360D02*
D03*
Y725360D02*
D03*
X859790D02*
D03*
Y721360D02*
D03*
Y717360D02*
D03*
Y713360D02*
D03*
Y709360D02*
D03*
Y705360D02*
D03*
D16*
X879540Y715360D02*
D03*
D17*
X868540D02*
D03*
X890540D02*
D03*
D18*
X849630Y788660D02*
D03*
Y755660D02*
D03*
X961390Y849620D02*
D03*
Y816620D02*
D03*
D19*
X1012190Y881761D02*
D03*
Y898779D02*
D03*
D20*
X854890Y938530D02*
D03*
X813890D02*
D03*
D21*
X993270Y468630D02*
D03*
X1041270D02*
D03*
D22*
X956310Y973120D02*
D03*
Y947120D02*
D03*
D23*
X995680Y974350D02*
D03*
Y943350D02*
D03*
D24*
X958850Y897890D02*
D03*
D25*
X951350Y912890D02*
D03*
X956350D02*
D03*
X961350D02*
D03*
X966350D02*
D03*
Y882890D02*
D03*
X961350D02*
D03*
X956350D02*
D03*
X951350D02*
D03*
D26*
X973850Y905390D02*
D03*
Y900390D02*
D03*
Y895390D02*
D03*
Y890390D02*
D03*
X943850D02*
D03*
Y895390D02*
D03*
Y900390D02*
D03*
Y905390D02*
D03*
D27*
X914400Y938890D02*
D03*
Y983890D02*
D03*
D28*
X723110Y852350D02*
D03*
Y938350D02*
D03*
X768110D02*
D03*
Y852350D02*
D03*
D29*
X1035050Y967830D02*
D03*
Y947330D02*
D03*
X974090Y736690D02*
D03*
Y716190D02*
D03*
D30*
X935990Y741440D02*
D03*
Y711440D02*
D03*
D31*
X913370Y660400D02*
D03*
X943370D02*
D03*
M02*
