G04*
G04 #@! TF.GenerationSoftware,Altium Limited,Altium Designer,24.9.1 (31)*
G04*
G04 Layer_Color=65535*
%FSLAX25Y25*%
%MOIN*%
G70*
G04*
G04 #@! TF.SameCoordinates,339F8C44-8F51-4397-B52D-863AAE003943*
G04*
G04*
G04 #@! TF.FilePolarity,Positive*
G04*
G01*
G75*
%ADD10C,0.01000*%
%ADD11C,0.00787*%
%ADD12C,0.00500*%
%ADD13C,0.00200*%
D10*
X418600Y311900D02*
G03*
X423600Y311900I2500J0D01*
G01*
X415500Y292800D02*
Y311900D01*
Y292800D02*
X426500D01*
X415500Y311900D02*
X418500D01*
X426500Y292800D02*
Y311900D01*
X423800D02*
X426500D01*
D11*
X442307Y320752D02*
Y352248D01*
X405693Y346500D02*
X405693Y326500D01*
X435807Y320752D02*
X442307D01*
X435807Y352248D02*
X442307D01*
X417050D02*
X422550D01*
X417050Y320752D02*
X422550D01*
X417050Y244752D02*
X422550D01*
X417050Y276248D02*
X422550D01*
X435807D02*
X442307D01*
X435807Y244752D02*
X442307D01*
X405693Y270500D02*
X405693Y250500D01*
X442307Y244752D02*
Y276248D01*
X399320Y295454D02*
Y299588D01*
X404658Y295433D02*
Y299567D01*
X417954Y290680D02*
X422088D01*
X417933Y285343D02*
X422067D01*
X452913Y283650D02*
X466102D01*
X452913Y277350D02*
X466102D01*
X460079Y330087D02*
X469921D01*
X460079Y305283D02*
Y330087D01*
Y305283D02*
X469921D01*
Y330087D01*
X336752Y276583D02*
Y320913D01*
X391870Y274220D02*
Y320913D01*
X336752D02*
X391870D01*
X372854D02*
Y322882D01*
X377776D01*
Y320913D02*
Y322882D01*
X384665Y320913D02*
Y322882D01*
X389587D01*
Y320913D02*
Y322882D01*
X343169Y320913D02*
Y322882D01*
X348091Y320913D02*
Y322882D01*
X341004D02*
X348091D01*
X341004Y320913D02*
Y322882D01*
X340886Y274220D02*
X391870D01*
X340886D02*
Y276583D01*
X336752D02*
X340886D01*
D12*
X405500Y310000D02*
Y310666D01*
Y310333D01*
X403501D01*
X403834Y310000D01*
X336400Y329299D02*
Y327300D01*
X337400Y326300D01*
X338399Y327300D01*
Y329299D01*
X339399Y326300D02*
X340399D01*
X339899D01*
Y328299D01*
X339399D01*
X341898Y326300D02*
Y328299D01*
X343398D01*
X343898Y327800D01*
Y326300D01*
X475001Y280000D02*
Y282999D01*
X476500D01*
X477000Y282500D01*
Y281500D01*
X476500Y281000D01*
X475001D01*
X476000D02*
X477000Y280000D01*
X479999D02*
X478000D01*
X479999Y282000D01*
Y282500D01*
X479499Y282999D01*
X478500D01*
X478000Y282500D01*
X454001Y336685D02*
Y339685D01*
X455500D01*
X456000Y339185D01*
Y338185D01*
X455500Y337685D01*
X454001D01*
X455000D02*
X456000Y336685D01*
X457000D02*
X457999D01*
X457500D01*
Y339685D01*
X457000Y339185D01*
X445653Y242000D02*
X447652D01*
X448652Y240500D02*
X449652D01*
X449152D01*
Y243499D01*
X448652Y243000D01*
X451151D02*
X451651Y243499D01*
X452651D01*
X453151Y243000D01*
Y242500D01*
X452651Y242000D01*
X453151Y241500D01*
Y241000D01*
X452651Y240500D01*
X451651D01*
X451151Y241000D01*
Y241500D01*
X451651Y242000D01*
X451151Y242500D01*
Y243000D01*
X451651Y242000D02*
X452651D01*
X454150Y243499D02*
Y241500D01*
X455150Y240500D01*
X456150Y241500D01*
Y243499D01*
X445252Y357000D02*
X447251D01*
X446251Y358000D02*
Y356000D01*
X448251Y355501D02*
X449250D01*
X448751D01*
Y358500D01*
X448251Y358000D01*
X450750D02*
X451250Y358500D01*
X452249D01*
X452749Y358000D01*
Y357500D01*
X452249Y357000D01*
X452749Y356500D01*
Y356000D01*
X452249Y355501D01*
X451250D01*
X450750Y356000D01*
Y356500D01*
X451250Y357000D01*
X450750Y357500D01*
Y358000D01*
X451250Y357000D02*
X452249D01*
X453749Y358500D02*
Y356500D01*
X454749Y355501D01*
X455748Y356500D01*
Y358500D01*
D13*
X436751Y308250D02*
X437751D01*
X437251D01*
Y306750D01*
X438251Y308250D02*
Y306750D01*
X439250D01*
X439750Y308000D02*
X440000Y308250D01*
X440500D01*
X440750Y308000D01*
Y307000D01*
X440500Y306750D01*
X440000D01*
X439750Y307000D01*
Y308000D01*
X442249Y308250D02*
X441749Y308000D01*
X441250Y307500D01*
Y307000D01*
X441500Y306750D01*
X441999D01*
X442249Y307000D01*
Y307250D01*
X441999Y307500D01*
X441250D01*
X442749Y306750D02*
X443249D01*
X442999D01*
Y308250D01*
X442749Y308000D01*
X395001Y305250D02*
X394751Y305500D01*
X394251D01*
X394001Y305250D01*
Y304250D01*
X394251Y304000D01*
X394751D01*
X395001Y304250D01*
X395501Y305500D02*
Y304000D01*
X396250D01*
X396500Y304250D01*
Y304500D01*
Y304750D01*
X396250Y305000D01*
X395501D01*
X397000D02*
Y304250D01*
X397250Y304000D01*
X398000D01*
Y303750D01*
X397750Y303500D01*
X397500D01*
X398000Y304000D02*
Y305000D01*
X398500Y303500D02*
Y305000D01*
X399249D01*
X399499Y304750D01*
Y304250D01*
X399249Y304000D01*
X398500D01*
X400999D02*
X399999D01*
X400999Y305000D01*
Y305250D01*
X400749Y305500D01*
X400249D01*
X399999Y305250D01*
X427251Y285250D02*
X427001Y285500D01*
X426501D01*
X426251Y285250D01*
Y284250D01*
X426501Y284000D01*
X427001D01*
X427251Y284250D01*
X427751Y285500D02*
Y284000D01*
X428500D01*
X428750Y284250D01*
Y284500D01*
Y284750D01*
X428500Y285000D01*
X427751D01*
X429250D02*
Y284250D01*
X429500Y284000D01*
X430250D01*
Y283750D01*
X430000Y283500D01*
X429750D01*
X430250Y284000D02*
Y285000D01*
X430750Y283500D02*
Y285000D01*
X431499D01*
X431749Y284750D01*
Y284250D01*
X431499Y284000D01*
X430750D01*
X432249D02*
X432749D01*
X432499D01*
Y285500D01*
X432249Y285250D01*
M02*
